<svg width="26" height="27" viewBox="0 0 26 27" fill="none" xmlns="http://www.w3.org/2000/svg">
<path fill-rule="evenodd" clip-rule="evenodd" d="M1.7352 19.952C5.278 26.1092 13.1245 28.2188 19.2608 24.6639C25.3971 21.1091 27.4996 13.2359 23.9568 7.07873C20.414 0.921553 12.5675 -1.18805 6.43119 2.36681C0.294863 5.92166 -1.8076 13.7948 1.7352 19.952ZM19.8269 21.3857C19.8428 21.4382 19.8553 21.4797 19.8916 21.4947C19.9072 21.5006 19.9237 21.5018 19.9398 21.4982C19.9558 21.4946 19.9708 21.4862 19.9833 21.4739C20.0028 21.4527 20.0153 21.4242 20.0184 21.3933C20.0216 21.3624 20.0153 21.3312 20.0007 21.3052C19.9892 21.2873 19.9771 21.2833 19.9608 21.2779C19.9468 21.2732 19.9296 21.2675 19.9068 21.2509C19.8739 21.2269 19.8519 21.1911 19.8091 21.1208C19.7554 21.0323 19.7284 20.9877 19.7365 20.9736C19.759 20.9357 19.9501 20.9784 20.0759 21.0975C20.1024 21.1253 20.1348 21.1441 20.1698 21.1518C20.2263 21.1623 20.2951 21.1421 20.3018 21.0924C20.3085 21.0428 20.2351 20.981 20.1804 20.9531C20.1428 20.9339 20.1177 20.934 20.0888 20.9341C20.0694 20.9341 20.0483 20.9342 20.0207 20.9284C19.89 20.9009 19.7775 20.7843 19.7902 20.742C19.8 20.7082 19.8941 20.7086 19.945 20.7159C19.9703 20.7194 19.9897 20.7254 20.0066 20.7307C20.0351 20.7394 20.0569 20.7462 20.0891 20.7362L20.0898 20.736C20.1037 20.7316 20.1526 20.7163 20.163 20.6706C20.1655 20.6549 20.1643 20.6388 20.1594 20.6239C20.1546 20.6091 20.1463 20.5961 20.1356 20.5863C20.0929 20.5464 20.0227 20.5823 20.0004 20.5938C19.9993 20.5943 19.9983 20.5948 19.9975 20.5953C19.8069 20.6848 19.0937 20.3798 19.0549 19.9764C19.0359 19.7809 19.1716 19.5412 19.2343 19.4303L19.2405 19.4194C19.2817 19.3482 19.3068 19.3179 19.3406 19.2771C19.3747 19.2361 19.4175 19.1845 19.4945 19.0697C19.5474 18.99 19.584 18.9295 19.6123 18.8824C19.6683 18.7897 19.6926 18.7494 19.7484 18.7192C19.8587 18.6608 19.9825 18.7008 20.1382 18.78C20.2973 18.8608 20.3933 18.9539 20.5043 19.0615C20.6028 19.1571 20.7132 19.2641 20.8902 19.3844C20.9731 19.441 21.0444 19.4815 21.0908 19.5075C21.3134 19.6568 21.5756 19.7036 21.8261 19.6386C21.906 19.6257 21.9838 19.5994 22.0572 19.5605C22.1435 19.5172 22.5024 19.3163 22.5652 18.8604C22.6231 18.4442 22.3595 18.1218 22.2643 18.0054L22.2636 18.0046C21.9004 17.5615 21.3611 17.5209 21.2516 17.5127L21.2495 17.5125C20.7652 17.4783 20.6475 17.475 20.6475 17.475C20.5793 17.4768 20.5111 17.4712 20.4438 17.4584L20.4391 17.4573C20.3243 17.4306 20.1283 17.385 19.9873 17.1924C19.9369 17.1253 19.9261 17.0845 19.8898 16.948C19.8682 16.8668 19.8376 16.7518 19.7843 16.5773C19.7761 16.5509 19.7683 16.5255 19.7607 16.5012C19.6735 16.2205 19.6278 16.0737 19.5808 15.961C19.5563 15.9028 19.5354 15.8552 19.5178 15.8151C19.456 15.6745 19.4356 15.6281 19.4454 15.5506C19.4703 15.3517 19.6803 15.2417 19.8055 15.2093C20.0103 15.1568 20.3049 15.2306 20.4062 15.423C20.4079 15.4263 20.4097 15.4299 20.4117 15.434C20.4322 15.4752 20.4709 15.5531 20.5277 15.5619C20.54 15.5646 20.5526 15.5633 20.5643 15.5581C20.5759 15.5528 20.5861 15.5439 20.5936 15.5323C20.6156 15.4884 20.5791 15.4071 20.5383 15.3637C20.5111 15.3371 20.4789 15.3185 20.4444 15.3094C20.3462 15.2694 20.2237 15.1728 20.2291 15.1158C20.2338 15.0471 20.4305 14.968 20.5869 15.0518C20.6233 15.0707 20.6536 15.0964 20.6797 15.1186C20.7182 15.1514 20.7478 15.1765 20.7746 15.1604C20.8024 15.144 20.8155 15.0897 20.8129 15.0463C20.81 15.0159 20.8004 14.9868 20.785 14.9619C20.7374 14.8858 20.6336 14.8821 20.5315 14.8825C20.4328 14.8826 20.3598 14.886 20.3054 14.8886C20.1994 14.8937 20.1639 14.8954 20.146 14.8623C20.112 14.8002 20.1624 14.6515 20.2396 14.6103C20.2615 14.5983 20.2803 14.5975 20.2974 14.5968C20.3181 14.5959 20.3363 14.5952 20.3545 14.5747C20.375 14.5478 20.3871 14.5137 20.3891 14.4778C20.391 14.4418 20.3825 14.4062 20.365 14.3765C20.3547 14.3588 20.3406 14.3446 20.3241 14.3351C20.3077 14.3255 20.2895 14.3211 20.2712 14.3222C20.2175 14.3309 20.1881 14.4097 20.172 14.453C20.1702 14.4578 20.1685 14.4622 20.167 14.4659C20.1283 14.5675 20.0244 14.6886 19.7329 14.7592C19.6078 14.7566 19.4849 14.7987 19.3807 14.8798C19.2765 14.9609 19.1958 15.0772 19.1495 15.2133C19.1019 15.3681 19.0931 15.5357 19.1242 15.6962C19.1422 15.8081 19.1681 15.8697 19.1978 15.9402C19.2172 15.9864 19.2383 16.0364 19.2598 16.1068C19.3049 16.2588 19.4039 16.6694 19.3017 16.7958C19.2244 16.8913 19.0634 16.7854 18.8065 16.6164C18.556 16.4515 18.2142 16.2265 17.7698 16.07C17.3914 15.938 16.9977 15.8767 16.603 15.8882L16.6006 15.8883C16.4742 15.8942 15.9252 15.9196 15.2493 16.2615C15.2459 16.2633 15.2416 16.2655 15.2365 16.2681C15.0652 16.3559 13.9888 16.9074 13.2948 17.6129L13.294 17.6137C13.2166 17.6944 13.0162 17.9036 12.8128 17.8301C12.8 17.8255 12.7875 17.8198 12.7755 17.813C12.6689 17.7491 12.6296 17.6101 12.5962 17.4917C12.5873 17.46 12.5787 17.4297 12.5694 17.4028C12.4925 17.1805 12.3244 17.0682 12.1845 16.9747C12.0608 16.892 11.9592 16.8241 11.9619 16.7079C11.9634 16.666 11.9769 16.6259 12.0003 16.5941C12.12 16.5729 12.2386 16.5516 12.3579 16.5298C12.3823 16.531 12.4065 16.5263 12.4292 16.5161C12.4519 16.5059 12.4726 16.4904 12.49 16.4705C12.4905 16.4698 12.491 16.4691 12.4917 16.4683C12.504 16.4527 12.5437 16.4025 12.5282 16.3564C12.512 16.3079 12.4443 16.3028 12.4345 16.3021L12.4343 16.302C12.3914 16.2999 12.3628 16.32 12.3335 16.3407C12.3234 16.3478 12.3132 16.355 12.3023 16.3614C12.1945 16.4256 12.0308 16.4044 11.9827 16.3117C11.9459 16.2398 11.9848 16.1365 11.9927 16.1154C11.993 16.1146 11.9933 16.1139 11.9935 16.1133C12.0359 16.0062 12.1432 15.9294 12.2289 15.9108C12.2524 15.9062 12.2749 15.896 12.295 15.881C12.3076 15.8725 12.3685 15.8235 12.3595 15.7589C12.3565 15.742 12.35 15.7261 12.3406 15.7128C12.3311 15.6995 12.319 15.6891 12.3054 15.6825C12.2648 15.6652 12.2264 15.6974 12.1846 15.7324C12.1809 15.7356 12.1771 15.7387 12.1733 15.7419L12.1731 15.7421C12.1264 15.7807 11.9155 15.9555 11.8441 15.8901C11.826 15.8671 11.8161 15.8369 11.8165 15.8056C11.8042 15.7 11.8667 15.614 11.8923 15.5787L11.8931 15.5776C11.9148 15.5479 11.9347 15.5285 11.9511 15.5124C11.9771 15.4871 11.9946 15.47 11.9972 15.4339C11.9988 15.4183 11.9971 15.4024 11.9922 15.3877C11.9874 15.373 11.9795 15.3599 11.9694 15.3495C11.9382 15.3239 11.8799 15.3409 11.8374 15.4089L11.6925 15.7269L11.34 16.4064C11.3199 16.548 11.3321 16.6932 11.3754 16.8275C11.426 16.9751 11.5063 17.0381 11.6082 17.1181C11.7091 17.1973 11.8312 17.2932 11.9669 17.5042C12.074 17.6696 12.2732 17.9788 12.2377 18.3249C12.1972 18.7248 11.8704 18.935 11.7335 19.0231L11.7302 19.0252C11.3955 19.238 11.0696 19.2054 10.8589 19.1822L10.8529 19.1815C10.6228 19.1556 9.81094 19.0645 9.25989 18.2522C8.94221 17.7818 8.85051 17.2989 8.72091 16.6167L8.71953 16.6094C8.63363 16.1528 8.61928 15.8665 8.60375 15.5567C8.59567 15.3955 8.58727 15.2279 8.56831 15.0267C8.50978 14.3807 8.40115 13.2071 7.85177 12.2834C7.37382 11.4841 6.49996 10.7611 5.50145 10.7477C4.49446 10.7342 3.39897 11.4425 3.03915 12.8003C2.73197 13.9542 2.97015 15.5425 3.79838 16.2308C4.09235 16.4752 4.56194 16.6909 5.03272 16.6181C5.27511 16.5799 5.51596 16.4482 5.99721 16.1839C6.08303 16.1366 6.15628 16.0938 6.22181 16.0556C6.44129 15.9274 6.57399 15.8499 6.80121 15.8221C6.96371 15.8026 7.09704 15.8178 7.1918 15.8285C7.28534 15.8392 7.34129 15.8456 7.35058 15.81C7.36929 15.7385 7.03894 15.4014 6.66629 15.4114C6.48432 15.4162 6.36185 15.5027 6.22695 15.5979C6.21264 15.608 6.19819 15.6182 6.18352 15.6284L6.18121 15.63C5.99303 15.7599 5.46063 16.1274 5.05854 16.1349C4.42531 16.1456 3.65588 15.2645 3.51193 14.2368C3.37667 13.2695 3.8492 12.569 4.00375 12.3657C4.58122 11.6032 5.53297 11.4457 6.2284 11.8356C6.62598 12.057 6.89529 12.4323 7.04332 12.6385L7.04802 12.6451C7.29218 12.9908 7.48369 13.383 7.61419 13.8047C7.71499 14.1312 7.72951 14.3162 7.77194 14.8569C7.78705 15.0494 7.8057 15.2871 7.83306 15.5924C7.91695 16.55 7.96261 17.0367 8.05222 17.3808C8.12816 17.674 8.30443 18.3275 8.75296 18.9517C8.79432 19.0097 9.81849 20.3974 11.0356 20.2816C11.3926 20.2487 11.9819 20.0661 12.3899 19.9082C12.4168 19.8977 12.4431 19.8873 12.469 19.8771C12.7381 19.7706 12.962 19.682 13.2606 19.7516C13.4068 19.7876 13.4805 19.8397 13.6072 19.9293C13.6879 19.9864 13.7901 20.0587 13.9463 20.1517C13.9513 20.1547 13.9619 20.1625 13.9775 20.174C14.0994 20.2639 14.529 20.5808 15.0199 20.6114C15.1577 20.6193 15.2957 20.6052 15.4302 20.5697C15.652 20.6031 15.7533 20.7018 15.8057 20.7869C15.824 20.8164 15.8382 20.8478 15.8517 20.8776C15.8797 20.9391 15.9045 20.9938 15.9548 21.0103C16.0084 21.0278 16.0762 20.9973 16.0868 20.9509C16.0874 20.9354 16.0852 20.9199 16.0805 20.9053C16.0757 20.8908 16.0685 20.8775 16.0592 20.8664C15.8823 20.5868 15.8788 20.5688 15.8822 20.5587C15.9 20.5043 16.1506 20.5222 16.3615 20.6336C16.3637 20.6347 16.366 20.6359 16.3683 20.6372C16.4089 20.6588 16.4758 20.6945 16.5212 20.6583C16.5353 20.6446 16.5462 20.6269 16.5529 20.607C16.5596 20.587 16.5619 20.5654 16.5595 20.5442C16.5542 20.509 16.5397 20.4767 16.5179 20.4518C16.4961 20.4269 16.4681 20.4106 16.438 20.4053C16.4018 20.3988 16.3783 20.4163 16.3523 20.4355C16.3383 20.4458 16.3237 20.4567 16.306 20.4647C16.1806 20.5211 15.9661 20.4059 15.9305 20.2474C15.8949 20.089 16.0421 19.8723 16.1771 19.8454C16.1817 19.8445 16.1869 19.8437 16.1925 19.8428C16.2249 19.8377 16.2714 19.8303 16.3091 19.7861C16.3158 19.7785 16.3636 19.7211 16.3474 19.6719C16.3343 19.6333 16.2868 19.6171 16.2535 19.6176C16.2021 19.6197 16.1729 19.6632 16.1363 19.7177C16.1207 19.741 16.1038 19.7662 16.0833 19.7911C15.9758 19.9206 15.8039 19.9971 15.7539 19.9391C15.7114 19.8905 15.7368 19.723 15.8026 19.6268C15.8146 19.609 15.8259 19.5968 15.8363 19.5857C15.8536 19.567 15.8683 19.5513 15.8788 19.5168C15.8998 19.4493 15.8931 19.3432 15.8516 19.3143C15.8102 19.2854 15.7498 19.3301 15.7196 19.3736C15.6981 19.4068 15.6849 19.4463 15.6814 19.4878C15.6586 19.6719 15.4724 19.8546 15.4348 19.8898C15.2291 20.0863 14.9377 20.0214 14.8181 19.9947L14.8156 19.9941C14.5013 19.9227 14.0665 19.6585 14.0636 19.3897C14.0622 19.2557 14.1701 19.153 14.7997 18.823C15.4492 18.4804 15.8074 18.2957 16.4076 18.0991C16.8915 17.9393 17.1409 17.8611 17.4393 17.8698C17.669 17.8772 17.9206 17.9574 18.4104 18.1137L18.4454 18.1248C18.9437 18.2865 19.1072 18.3841 19.1311 18.5249C19.1387 18.5641 19.1336 18.606 19.0376 18.803C18.9502 18.9826 18.8822 19.0961 18.8209 19.1986C18.7756 19.2744 18.7339 19.3441 18.6906 19.4298L18.6868 19.4375C18.5501 19.7108 18.4821 19.8468 18.5051 19.9868C18.5642 20.36 19.032 20.6286 19.0965 20.6635C19.1456 20.6908 19.1835 20.7078 19.2164 20.7225C19.2508 20.7379 19.2797 20.7508 19.31 20.7705C19.3345 20.7871 19.3577 20.8062 19.3794 20.8276C19.4178 20.8628 19.4535 20.902 19.4861 20.9446C19.5592 21.0386 19.6175 21.091 19.6652 21.1338C19.7261 21.1885 19.7696 21.2276 19.8045 21.3181C19.8137 21.3417 19.8206 21.3646 19.8269 21.3857Z" fill="white" fill-opacity="0.47"/>
</svg>
