<svg width="66" height="52" viewBox="0 0 66 52" fill="none" xmlns="http://www.w3.org/2000/svg">
<path d="M43.2049 16.4133C45.4603 16.4133 47.6234 15.5486 49.2182 14.0096C50.813 12.4706 51.709 10.3832 51.709 8.20663C51.709 6.0301 50.813 3.94271 49.2182 2.40367C47.6234 0.864625 45.4603 0 43.2049 0C40.9495 0 38.7864 0.864625 37.1916 2.40367C35.5968 3.94271 34.7008 6.0301 34.7008 8.20663C34.7008 10.3832 35.5968 12.4706 37.1916 14.0096C38.7864 15.5486 40.9495 16.4133 43.2049 16.4133ZM63.0874 12.6809C50.9096 21.0681 45.3003 19.6007 39.8033 19.4333C36.0002 19.2462 34.7008 20.4115 34.7008 22.9786L34.7042 42.6745C34.7042 59.0877 63.3494 53.934 52.2736 26.4286C57.9578 23.2806 62.7371 18.4387 65.4584 15.2282C66.8564 13.2324 65.3631 11.1413 63.0874 12.6809ZM22.7951 0C20.5397 0 18.3766 0.864625 16.7818 2.40367C15.187 3.94271 14.291 6.0301 14.291 8.20663C14.291 10.3832 15.187 12.4706 16.7818 14.0096C18.3766 15.5486 20.5397 16.4133 22.7951 16.4133C25.0505 16.4133 27.2136 15.5486 28.8084 14.0096C30.4032 12.4706 31.2992 10.3832 31.2992 8.20663C31.2992 6.0301 30.4032 3.94271 28.8084 2.40367C27.2136 0.864625 25.0505 0 22.7951 0ZM26.1967 19.4333C20.6997 19.6007 15.0904 21.0681 2.91257 12.6809C0.636877 11.1413 -0.856439 13.2324 0.541632 15.2249C3.26294 18.4387 8.04223 23.2773 13.7264 26.4254C2.65064 53.9307 31.2958 59.0845 31.2958 42.6712L31.2992 22.9753C31.2992 20.4115 29.9998 19.2462 26.1967 19.4333Z" fill="#F6ECD1"/>
</svg>
