<svg width="32" height="32" viewBox="0 0 32 32" fill="none" xmlns="http://www.w3.org/2000/svg">
<g clip-path="url(#clip0_306_405)">
<path d="M15.448 7.02109C17.891 7.02109 20.193 8.10409 21.88 9.79709V9.80209C21.88 8.98909 22.427 8.37409 23.183 8.37409H23.375C24.568 8.37409 24.807 9.49909 24.807 9.85409L24.812 22.4891C24.729 23.3171 25.667 23.7451 26.188 23.2131C28.213 21.1301 30.64 12.4941 24.927 7.49409C19.599 2.82709 12.448 3.59809 8.64605 6.21809C4.60505 9.01009 2.02205 15.1771 4.53105 20.9731C7.27105 27.2921 15.104 29.1771 19.766 27.2971C22.126 26.3441 23.214 29.5301 20.761 30.5731C17.064 32.1501 6.76105 31.9891 1.94905 23.6561C-1.30195 18.0271 -1.12995 8.12509 7.49605 2.99509C14.089 -0.931912 22.788 0.156088 28.032 5.63109C33.512 11.3601 33.195 22.0791 27.845 26.2461C25.422 28.1411 21.824 26.2981 21.85 23.5371L21.823 22.6371C20.136 24.3081 17.891 25.2881 15.448 25.2881C10.615 25.2881 6.36005 21.0321 6.36005 16.2041C6.36005 11.3241 10.615 7.02309 15.448 7.02309V7.02109ZM21.527 15.8551C21.344 12.3181 18.719 10.1881 15.547 10.1881H15.427C11.771 10.1881 9.74005 13.0681 9.74005 16.3331C9.74005 19.9941 12.193 22.3061 15.412 22.3061C19.005 22.3061 21.364 19.6771 21.536 16.5671L21.527 15.8551Z" fill="#F6ECD1"/>
</g>
<defs>
<clipPath id="clip0_306_405">
<rect width="32" height="32" fill="white"/>
</clipPath>
</defs>
</svg>
