<svg width="43" height="42" viewBox="0 0 43 42" fill="none" xmlns="http://www.w3.org/2000/svg">
<path d="M18.3377 40.4003C17.639 38.7496 18.4232 36.8922 20.5195 36.5664V25.1988H19.5205C18.5144 25.1945 17.745 24.5719 17.5902 23.6368C17.4419 22.7455 17.9541 21.9057 18.8874 21.5919C19.8448 21.2697 20.8162 20.9869 21.7842 20.6922C24.1863 19.9581 26.5998 19.2388 28.9992 18.4872C29.6259 18.2816 30.302 18.2816 30.9287 18.4872C34.1848 19.4993 37.4466 20.4942 40.714 21.472C41.5237 21.716 42.1504 22.1236 42.3263 23.0079C42.3761 23.2681 42.3691 23.5361 42.3057 23.7934C42.2422 24.0508 42.1239 24.2914 41.9588 24.4989C41.7937 24.7064 41.5856 24.8759 41.3488 24.9958C41.1121 25.1158 40.8522 25.1833 40.5869 25.1938C40.2124 25.2072 39.8365 25.1938 39.4317 25.1938V36.522C39.8351 36.6807 40.2661 36.7857 40.6278 37.0043C41.6509 37.6227 42.0748 38.7905 41.7491 39.9399C41.4382 41.0364 40.4449 41.7796 39.2339 41.7838C36.3491 41.793 33.4651 41.788 30.5804 41.788H6.4201C6.23217 41.788 6.04282 41.7944 5.85488 41.7761C5.68255 41.7628 5.52182 41.6843 5.40558 41.5566C5.28934 41.4289 5.22639 41.2617 5.22961 41.0892C5.23303 40.9233 5.29556 40.7639 5.40599 40.6397C5.51642 40.5156 5.66754 40.4347 5.83227 40.4116C5.94968 40.4005 6.06769 40.3972 6.18554 40.4017H18.3377V40.4003ZM29.9332 23.7969H40.2089C40.3269 23.7969 40.4675 23.8315 40.5565 23.78C40.7056 23.694 40.902 23.5685 40.9288 23.4274C40.9557 23.2864 40.8151 23.1038 40.7169 22.962C40.6731 22.8993 40.5494 22.8915 40.4597 22.8612C37.0988 21.8317 33.7399 20.7965 30.3741 19.7853C30.0817 19.7108 29.7743 19.7183 29.486 19.8072C26.8718 20.5871 24.269 21.3895 21.6619 22.1864C20.9194 22.4134 20.1782 22.6433 19.4357 22.8682C19.1665 22.95 18.9411 23.0798 18.9856 23.402C19.0301 23.7243 19.2605 23.8117 19.5544 23.7983C19.683 23.792 19.813 23.7983 19.9423 23.7983L29.9332 23.7969ZM29.9784 37.9937C26.9997 37.9937 24.0212 37.9937 21.043 37.9937C20.8666 37.9904 20.6901 37.9975 20.5145 38.0148C20.2371 38.0475 19.9805 38.178 19.7908 38.3828C19.6012 38.5875 19.491 38.8531 19.4802 39.1318C19.4456 39.8736 19.9825 40.3975 20.8063 40.3975C26.9163 40.4013 33.0264 40.4013 39.1364 40.3975C39.2548 40.3975 39.373 40.3872 39.4896 40.3665C39.98 40.2776 40.3375 39.9102 40.4434 39.3997C40.536 38.947 40.3269 38.4125 39.8973 38.201C39.6237 38.0716 39.3247 38.0044 39.0219 38.0042C36.0058 37.988 32.9917 37.9937 29.9784 37.9937ZM31.0333 36.5834V25.2227H28.8988V36.5812L31.0333 36.5834ZM35.8079 36.5756H37.9657V25.1988C37.3595 25.1988 36.7829 25.2185 36.2085 25.191C35.8744 25.1755 35.8002 25.2904 35.8009 25.607C35.8122 29.1328 35.8079 32.6585 35.8079 36.1842V36.5756ZM21.941 25.1988V25.6162C21.941 27.2371 21.941 28.8589 21.941 30.4817C21.941 32.3976 21.946 34.3128 21.9354 36.228C21.9354 36.51 21.9982 36.6278 22.3049 36.6116C22.7632 36.583 23.2229 36.583 23.6812 36.6116C24.0443 36.6377 24.1341 36.5192 24.1333 36.1624C24.1199 32.6366 24.1249 29.1109 24.1249 25.5852C24.1249 25.5147 24.1454 25.4343 24.1178 25.3736C24.0846 25.3031 24.0111 25.203 23.9532 25.2023C23.2975 25.1938 22.6419 25.1988 21.941 25.1988ZM27.4519 25.1988C26.9156 25.1988 26.4218 25.2206 25.9307 25.1917C25.5824 25.1705 25.5068 25.2918 25.5068 25.6247C25.5188 29.1356 25.5146 32.6465 25.5146 36.1574C25.5053 36.2515 25.5086 36.3463 25.5245 36.4395C25.5422 36.5023 25.6135 36.5968 25.6623 36.5975C26.2572 36.6087 26.8521 36.6045 27.4526 36.6045L27.4519 25.1988ZM32.4887 36.6073C33.0151 36.6073 33.4976 36.5869 33.9773 36.6144C34.3101 36.6334 34.4154 36.5396 34.4147 36.1913C34.4013 32.655 34.4069 29.1194 34.4062 25.5838C34.4062 25.4695 34.3956 25.3553 34.3892 25.2199H32.4887V36.6073Z" fill="#F6ECD1"/>
<path d="M2.94966 18.2737V6.88207H2.0008C0.941013 6.88207 0.175142 6.27282 0.0225328 5.30113C-0.123011 4.37527 0.446447 3.53826 1.44335 3.23575C4.82713 2.19824 8.21114 1.16214 11.5954 0.127458C12.102 -0.0375318 12.6473 -0.042457 13.1568 0.113355C16.5853 1.16355 20.0143 2.21328 23.4438 3.26254C24.2966 3.52415 24.8201 4.2568 24.7918 5.11356C24.765 5.93153 24.1828 6.66488 23.3689 6.82636C22.9937 6.9004 22.5952 6.89123 22.2095 6.87431C21.8979 6.86091 21.8138 6.95752 21.8152 7.26919C21.8261 11.0873 21.8284 14.9057 21.8223 18.7243C21.8223 19.4901 21.6252 19.6897 20.8678 19.6897H3.27961C2.55401 19.6897 2.10395 20.0006 1.9464 20.6C1.90387 20.7654 1.89744 20.9379 1.92753 21.1059C1.95762 21.274 2.02354 21.4336 2.12081 21.574C2.21808 21.7144 2.34445 21.8323 2.49135 21.9198C2.63825 22.0072 2.80225 22.0621 2.97227 22.0808C3.11332 22.0912 3.2548 22.0945 3.39618 22.0907H14.7663C14.9548 22.0863 15.1435 22.0915 15.3315 22.1062C15.7172 22.1457 15.9674 22.4144 15.9716 22.7768C15.9744 22.9547 15.9088 23.1269 15.7883 23.2581C15.6678 23.3892 15.5015 23.4693 15.3237 23.4819C15.2532 23.4877 15.1825 23.4896 15.1118 23.4876C11.1336 23.4876 7.15347 23.4876 3.17151 23.4876C1.79732 23.4876 0.72835 22.5709 0.537588 21.2614C0.438507 20.5972 0.602234 19.9206 0.994126 19.3747C1.38602 18.8288 1.97533 18.4564 2.63738 18.3365C2.73205 18.3203 2.82319 18.2998 2.94966 18.2737ZM12.3853 5.49998C15.8449 5.49998 19.305 5.49998 22.7655 5.49998C23.0616 5.49998 23.3237 5.44145 23.3781 5.10509C23.4325 4.76874 23.1845 4.64111 22.9068 4.55578C19.5565 3.53332 16.2083 2.50381 12.8537 1.49615C12.5645 1.41181 12.2575 1.40936 11.967 1.4891C8.64636 2.48618 5.33206 3.50653 2.01634 4.52123C1.52178 4.67284 1.34585 4.83502 1.41438 5.11356C1.51612 5.52889 1.85879 5.49857 2.18096 5.49857L12.3853 5.49998ZM4.38743 18.2561H6.55575V7.30092C6.55575 7.23041 6.57766 7.14861 6.5494 7.08938C6.51054 7.01111 6.43565 6.89405 6.37347 6.89264C5.71852 6.87854 5.06216 6.88418 4.38743 6.88418V18.2561ZM11.3262 6.90886V18.2617H13.474V6.90886H11.3262ZM20.4227 18.2709V16.1146C20.4227 13.1649 20.417 10.2153 20.429 7.26567C20.429 6.94764 20.3358 6.86021 20.0292 6.87572C19.56 6.89969 19.0874 6.89617 18.6161 6.87572C18.3335 6.86444 18.2303 6.93918 18.2311 7.24451C18.2416 10.7935 18.2374 14.3425 18.2388 17.8922C18.2388 18.0163 18.2537 18.1405 18.2614 18.2709H20.4227ZM14.921 6.88489V18.2702H16.854V8.71616C16.854 8.19928 16.8632 7.68241 16.847 7.16483C16.8434 7.06964 16.7417 6.89828 16.6802 6.89617C16.0931 6.87713 15.5116 6.88489 14.921 6.88489ZM7.98717 6.90957V18.2624H9.87076V6.90957H7.98717Z" fill="#F6ECD1"/>
<path d="M11.5791 28.1265C11.1411 28.5835 10.7087 29.0432 10.2636 29.4967C10.0347 29.7286 9.75418 29.7851 9.45603 29.6313C9.15787 29.4776 9.02858 29.2202 9.09358 28.9001C9.13067 28.7418 9.21059 28.5967 9.32461 28.4805C10.1578 27.6344 10.9974 26.7945 11.8434 25.961C12.2199 25.5901 12.5753 25.5901 12.9519 25.961C13.7997 26.7945 14.6405 27.6332 15.4742 28.477C15.8048 28.8105 15.8119 29.2174 15.5138 29.5079C15.2311 29.79 14.8256 29.79 14.507 29.4755C14.0661 29.0411 13.6485 28.5828 13.2204 28.1357L13.0982 28.1893V28.5835V36.4106C13.0982 36.5044 13.0982 36.5989 13.0982 36.6927C13.0748 37.1489 12.7781 37.4542 12.3768 37.4387C11.9924 37.4239 11.7134 37.1144 11.7127 36.6751C11.7094 34.0552 11.7094 31.4356 11.7127 28.8162V28.1942L11.5791 28.1265Z" fill="#F6ECD1"/>
<path d="M29.2653 14.2443V13.7753C29.2653 11.1325 29.2653 8.4898 29.2653 5.84738C29.2635 5.74174 29.2699 5.63612 29.2844 5.53147C29.3452 5.15563 29.6256 4.92645 29.9973 4.94056C30.1702 4.94256 30.3355 5.01186 30.4579 5.13369C30.5804 5.25552 30.6504 5.42026 30.6529 5.59282C30.6692 5.96796 30.6586 6.34451 30.6586 6.72105C30.6586 9.07155 30.6586 11.422 30.6586 13.7725V14.288L31.7707 13.1915C31.8795 13.0843 31.9826 12.9701 32.0971 12.8699C32.4249 12.5808 32.8283 12.5879 33.1039 12.8826C33.3625 13.1583 33.3582 13.5666 33.0657 13.8635C32.2885 14.6504 31.5043 15.4275 30.7229 16.2088C30.631 16.2998 30.5441 16.3964 30.4459 16.4803C30.1442 16.7391 29.7733 16.756 29.4886 16.4803C28.5899 15.6003 27.7004 14.7111 26.82 13.8127C26.5424 13.5307 26.577 13.1323 26.8511 12.8636C26.9123 12.7993 26.9857 12.7478 27.0671 12.7122C27.1484 12.6766 27.2361 12.6575 27.3249 12.6561C27.4137 12.6548 27.502 12.6711 27.5844 12.7042C27.6668 12.7373 27.7418 12.7864 27.8049 12.8488C28.2289 13.2416 28.6259 13.6576 29.0357 14.0623C29.0823 14.099 29.1381 14.1385 29.2653 14.2443Z" fill="#F6ECD1"/>
</svg>
