<svg width="57" height="57" viewBox="0 0 57 57" fill="none" xmlns="http://www.w3.org/2000/svg">
<circle cx="28.5" cy="28.5" r="27.5" stroke="#F6ECD1" stroke-width="2"/>
<path fill-rule="evenodd" clip-rule="evenodd" d="M31.5585 19.1846C30.4263 19.3569 29.2999 19.5646 28.1808 19.8076C27.0617 19.5646 25.9352 19.3569 24.8031 19.1846C25.7571 19.5601 26.7264 20.0099 27.7494 20.5041C27.8786 20.5667 27.9877 20.6645 28.064 20.7862C28.1403 20.9079 28.1807 21.0486 28.1808 21.1922C28.1808 20.8988 28.3478 20.6313 28.6122 20.5041C29.6351 20.0099 30.6045 19.5593 31.5585 19.1846V19.1846ZM28.1808 38.3213C28.1808 38.7642 27.8183 39.0876 27.4145 39.093V39.2439C22.6108 38.4309 19.217 38.3796 14.388 39.2271V21.1815C14.8967 21.065 15.4077 20.9585 15.9205 20.862V19.3042C15.1343 19.4452 14.3114 19.6199 13.4355 19.8314C13.2699 19.8716 13.1226 19.9664 13.0174 20.1006C12.9121 20.2347 12.8551 20.4003 12.8555 20.5708V40.1404C12.8555 40.6255 13.3022 40.9872 13.7781 40.8968C19.2001 39.8623 22.6093 39.9236 28.0336 40.9082C28.0835 40.9174 28.1333 40.9213 28.1815 40.9213C28.2298 40.9213 28.2788 40.9174 28.3279 40.9082C33.7523 39.9236 37.1614 39.8623 42.5835 40.8968C42.6953 40.9184 42.8105 40.9151 42.9209 40.8871C43.0313 40.8592 43.1342 40.8073 43.2222 40.7351C43.3103 40.6629 43.3814 40.5722 43.4305 40.4694C43.4795 40.3666 43.5053 40.2543 43.5061 40.1404V20.5716C43.5066 20.401 43.4496 20.2352 43.3444 20.1009C43.2392 19.9666 43.0918 19.8716 42.926 19.8314C42.1031 19.631 41.2744 19.4552 40.441 19.3042V20.862C40.9345 20.9539 41.4433 21.0612 41.9735 21.1815V39.2271C37.1445 38.3796 33.7507 38.4301 28.947 39.2439V39.093C28.5432 39.0868 28.1808 38.7635 28.1808 38.3213V38.3213Z" fill="#F6ECD1"/>
<path fill-rule="evenodd" clip-rule="evenodd" d="M16.6868 19.2459V36.5237C16.6876 36.5252 16.6891 36.5275 16.6922 36.5298C16.6978 36.5343 16.7044 36.5376 16.7114 36.5393C16.7184 36.541 16.7257 36.5412 16.7328 36.5397C20.8247 35.7888 23.8997 36.7083 27.3954 38.3251C27.3973 38.3259 27.3994 38.3265 27.4015 38.3267H27.403C27.4063 38.3264 27.4095 38.3253 27.4122 38.3236C27.413 38.3232 27.4138 38.3227 27.4145 38.3221V21.193C23.5985 19.3509 20.722 18.2199 16.6868 19.2459ZM16.2838 17.767C20.8959 16.5862 24.2123 17.9448 28.0827 19.8137C28.3419 19.9391 28.5605 20.135 28.7134 20.379C28.8663 20.6229 28.9473 20.9051 28.9471 21.193V38.3206C28.9471 39.46 27.7617 40.181 26.7525 39.7152C23.3962 38.1635 20.6607 37.3765 17.0094 38.047C16.0822 38.2179 15.1543 37.5267 15.1543 36.5237V19.2344C15.1543 18.5601 15.601 17.9417 16.2838 17.767V17.767Z" fill="#F6ECD1"/>
<path fill-rule="evenodd" clip-rule="evenodd" d="M39.6753 19.2459V36.5237C39.6745 36.5252 39.673 36.5275 39.6691 36.5298C39.6636 36.5342 39.6572 36.5374 39.6503 36.5391C39.6434 36.5409 39.6363 36.5411 39.6293 36.5398C35.5374 35.7888 32.4632 36.7083 28.9667 38.3251C28.9648 38.3259 28.9627 38.3265 28.9606 38.3267H28.9591C28.9558 38.3264 28.9526 38.3254 28.9499 38.3236L28.9476 38.3206V21.1922C32.7636 19.3501 35.6401 18.2191 39.6753 19.2459V19.2459ZM40.0783 17.767C35.4662 16.5862 32.1498 17.9448 28.2794 19.8137C28.0203 19.9392 27.8018 20.1352 27.649 20.3791C27.4961 20.6231 27.415 20.9051 27.415 21.193V38.3221C27.415 39.4615 28.6005 40.1826 29.6096 39.7159C32.9659 38.1642 35.7014 37.3773 39.3527 38.0478C40.2799 38.2179 41.2078 37.5275 41.2078 36.5237V19.2344C41.2092 18.8991 41.099 18.5729 40.8945 18.3072C40.69 18.0415 40.4028 17.8514 40.0783 17.767V17.767Z" fill="#F6ECD1"/>
<path fill-rule="evenodd" clip-rule="evenodd" d="M18.2272 33.4187C21.0394 33.3896 22.608 33.6731 25.5926 34.8922L26.1719 33.4731C23.0095 32.1819 21.2387 31.8548 18.2119 31.8862L18.2272 33.4187Z" fill="#F6ECD1"/>
<path fill-rule="evenodd" clip-rule="evenodd" d="M18.2272 30.3536C21.0394 30.3245 22.608 30.608 25.5926 31.8272L26.1719 30.408C23.0095 29.1169 21.2387 28.7897 18.2119 28.8211L18.2272 30.3536Z" fill="#F6ECD1"/>
<path fill-rule="evenodd" clip-rule="evenodd" d="M18.2272 27.2886C21.0394 27.2595 22.608 27.543 25.5926 28.7622L26.1719 27.343C23.0095 26.0519 21.2387 25.7247 18.2119 25.7561L18.2272 27.2886Z" fill="#F6ECD1"/>
<path fill-rule="evenodd" clip-rule="evenodd" d="M20.1351 21.1562V23.455H18.6025V21.1562H20.1351Z" fill="#F6ECD1"/>
<path fill-rule="evenodd" clip-rule="evenodd" d="M22.8167 21.9225V24.2213H21.2842V21.9225H22.8167Z" fill="#F6ECD1"/>
<path fill-rule="evenodd" clip-rule="evenodd" d="M25.4993 22.6887V24.9875H23.9668V22.6887H25.4993Z" fill="#F6ECD1"/>
<path fill-rule="evenodd" clip-rule="evenodd" d="M38.1341 33.4187C35.3219 33.3896 33.7534 33.6731 30.7687 34.8922L30.1895 33.4731C33.3518 32.1819 35.1227 31.8548 38.1494 31.8862L38.1341 33.4187V33.4187Z" fill="#F6ECD1"/>
<path fill-rule="evenodd" clip-rule="evenodd" d="M38.1341 30.3536C35.3219 30.3245 33.7534 30.608 30.7687 31.8272L30.1895 30.408C33.3518 29.1169 35.1227 28.7897 38.1494 28.8211L38.1341 30.3536V30.3536Z" fill="#F6ECD1"/>
<path fill-rule="evenodd" clip-rule="evenodd" d="M38.1341 27.2886C35.3219 27.2595 33.7534 27.543 30.7687 28.7622L30.1895 27.343C33.3518 26.0519 35.1227 25.7247 38.1494 25.7561L38.1341 27.2886V27.2886Z" fill="#F6ECD1"/>
<path fill-rule="evenodd" clip-rule="evenodd" d="M36.2266 21.1562V23.455H37.7591V21.1562H36.2266Z" fill="#F6ECD1"/>
<path fill-rule="evenodd" clip-rule="evenodd" d="M33.5449 21.9225V24.2213H35.0775V21.9225H33.5449Z" fill="#F6ECD1"/>
<path fill-rule="evenodd" clip-rule="evenodd" d="M30.8623 22.6887V24.9875H32.3948V22.6887H30.8623Z" fill="#F6ECD1"/>
</svg>
