<svg width="57" height="57" viewBox="0 0 57 57" fill="none" xmlns="http://www.w3.org/2000/svg">
<circle cx="28.5" cy="28.5" r="27.5" stroke="#F6ECD1" stroke-width="2"/>
<path fill-rule="evenodd" clip-rule="evenodd" d="M31.5585 19.1846C30.4263 19.3568 29.2999 19.5646 28.1808 19.8075C27.0617 19.5646 25.9352 19.3568 24.8031 19.1846C25.7571 19.56 26.7264 20.0098 27.7494 20.5041C27.8786 20.5667 27.9877 20.6644 28.064 20.7861C28.1403 20.9078 28.1807 21.0485 28.1808 21.1922C28.1808 20.8987 28.3478 20.6313 28.6122 20.5041C29.6351 20.0098 30.6045 19.5593 31.5585 19.1846V19.1846ZM28.1808 38.3213C28.1808 38.7642 27.8183 39.0875 27.4145 39.0929V39.2439C22.6108 38.4308 19.217 38.3795 14.388 39.227V21.1815C14.8967 21.065 15.4077 20.9584 15.9205 20.8619V19.3041C15.1343 19.4451 14.3114 19.6198 13.4355 19.8313C13.2699 19.8716 13.1226 19.9664 13.0174 20.1005C12.9121 20.2346 12.8551 20.4003 12.8555 20.5707V40.1404C12.8555 40.6254 13.3022 40.9871 13.7781 40.8967C19.2001 39.8622 22.6093 39.9235 28.0336 40.9082C28.0835 40.9174 28.1333 40.9212 28.1815 40.9212C28.2298 40.9212 28.2788 40.9174 28.3279 40.9082C33.7523 39.9235 37.1614 39.8622 42.5835 40.8967C42.6953 40.9183 42.8105 40.915 42.9209 40.8871C43.0313 40.8591 43.1342 40.8072 43.2222 40.735C43.3103 40.6628 43.3814 40.5721 43.4305 40.4693C43.4795 40.3666 43.5053 40.2543 43.5061 40.1404V20.5715C43.5066 20.4009 43.4496 20.2351 43.3444 20.1008C43.2392 19.9665 43.0918 19.8716 42.926 19.8313C42.1031 19.631 41.2744 19.4552 40.441 19.3041V20.8619C40.9345 20.9539 41.4433 21.0612 41.9735 21.1815V39.227C37.1445 38.3795 33.7507 38.4301 28.947 39.2439V39.0929C28.5432 39.0868 28.1808 38.7634 28.1808 38.3213V38.3213Z" fill="white"/>
<path fill-rule="evenodd" clip-rule="evenodd" d="M16.6868 19.2459V36.5237C16.6876 36.5252 16.6891 36.5275 16.6922 36.5298C16.6978 36.5343 16.7044 36.5376 16.7114 36.5393C16.7184 36.541 16.7257 36.5412 16.7328 36.5397C20.8247 35.7888 23.8997 36.7083 27.3954 38.3251C27.3973 38.3259 27.3994 38.3265 27.4015 38.3267H27.403C27.4063 38.3264 27.4095 38.3253 27.4122 38.3236C27.413 38.3232 27.4138 38.3227 27.4145 38.3221V21.193C23.5985 19.3509 20.722 18.2199 16.6868 19.2459ZM16.2838 17.767C20.8959 16.5862 24.2123 17.9448 28.0827 19.8137C28.3419 19.9391 28.5605 20.135 28.7134 20.379C28.8663 20.6229 28.9473 20.9051 28.9471 21.193V38.3206C28.9471 39.46 27.7617 40.181 26.7525 39.7152C23.3962 38.1635 20.6607 37.3765 17.0094 38.047C16.0822 38.2179 15.1543 37.5267 15.1543 36.5237V19.2344C15.1543 18.5601 15.601 17.9417 16.2838 17.767Z" fill="white"/>
<path fill-rule="evenodd" clip-rule="evenodd" d="M39.6743 19.2459V36.5237C39.6735 36.5252 39.672 36.5275 39.6682 36.5298C39.6626 36.5342 39.6562 36.5374 39.6493 36.5391C39.6425 36.5409 39.6353 36.5411 39.6283 36.5398C35.5365 35.7888 32.4622 36.7083 28.9657 38.3251C28.9638 38.3259 28.9617 38.3265 28.9596 38.3267H28.9581C28.9548 38.3264 28.9517 38.3253 28.9489 38.3236L28.9466 38.3206V21.1922C32.7626 19.3501 35.6392 18.2191 39.6743 19.2459ZM40.0774 17.767C35.4652 16.5862 32.1488 17.9448 28.2784 19.8137C28.0193 19.9392 27.8009 20.1352 27.648 20.3791C27.4951 20.6231 27.414 20.9051 27.4141 21.193V38.3221C27.4141 39.4615 28.5995 40.1826 29.6086 39.7159C32.9649 38.1642 35.7005 37.3773 39.3517 38.0478C40.2789 38.2179 41.2068 37.5275 41.2068 36.5237V19.2344C41.2083 18.8991 41.098 18.5729 40.8935 18.3072C40.689 18.0415 40.4019 17.8514 40.0774 17.767Z" fill="white"/>
<path fill-rule="evenodd" clip-rule="evenodd" d="M18.2282 33.4187C21.0404 33.3896 22.609 33.6731 25.5936 34.8922L26.1729 33.4731C23.0105 32.1819 21.2396 31.8548 18.2129 31.8862L18.2282 33.4187Z" fill="white"/>
<path fill-rule="evenodd" clip-rule="evenodd" d="M18.2282 30.3536C21.0404 30.3245 22.609 30.608 25.5936 31.8272L26.1729 30.408C23.0105 29.1169 21.2396 28.7897 18.2129 28.8211L18.2282 30.3536Z" fill="white"/>
<path fill-rule="evenodd" clip-rule="evenodd" d="M18.2282 27.2887C21.0404 27.2596 22.609 27.5431 25.5936 28.7622L26.1729 27.3431C23.0105 26.0519 21.2396 25.7247 18.2129 25.7562L18.2282 27.2887Z" fill="white"/>
<path fill-rule="evenodd" clip-rule="evenodd" d="M20.1341 21.1562V23.455H18.6016V21.1562H20.1341Z" fill="white"/>
<path fill-rule="evenodd" clip-rule="evenodd" d="M22.8157 21.9225V24.2213H21.2832V21.9225H22.8157Z" fill="white"/>
<path fill-rule="evenodd" clip-rule="evenodd" d="M25.4993 22.6887V24.9875H23.9668V22.6887H25.4993Z" fill="white"/>
<path fill-rule="evenodd" clip-rule="evenodd" d="M38.1341 33.4187C35.3219 33.3896 33.7534 33.6731 30.7687 34.8922L30.1895 33.4731C33.3518 32.1819 35.1227 31.8548 38.1494 31.8862L38.1341 33.4187Z" fill="white"/>
<path fill-rule="evenodd" clip-rule="evenodd" d="M38.1341 30.3536C35.3219 30.3245 33.7534 30.608 30.7687 31.8272L30.1895 30.408C33.3518 29.1169 35.1227 28.7897 38.1494 28.8211L38.1341 30.3536Z" fill="white"/>
<path fill-rule="evenodd" clip-rule="evenodd" d="M38.1341 27.2887C35.3219 27.2596 33.7534 27.5431 30.7687 28.7622L30.1895 27.3431C33.3518 26.0519 35.1227 25.7247 38.1494 25.7562L38.1341 27.2887Z" fill="white"/>
<path fill-rule="evenodd" clip-rule="evenodd" d="M36.2266 21.1562V23.455H37.7591V21.1562H36.2266Z" fill="white"/>
<path fill-rule="evenodd" clip-rule="evenodd" d="M33.5449 21.9225V24.2213H35.0775V21.9225H33.5449Z" fill="white"/>
<path fill-rule="evenodd" clip-rule="evenodd" d="M30.8613 22.6887V24.9875H32.3939V22.6887H30.8613Z" fill="white"/>
</svg>
