<svg width="23" height="23" viewBox="0 0 23 23" fill="none" xmlns="http://www.w3.org/2000/svg">
<rect x="1" y="1" width="21" height="21" rx="4" stroke="#F6ECD1" stroke-width="2"/>
<path d="M12.79 6.84863C12.5947 6.84863 12.4287 6.89746 12.292 6.99512C12.165 7.09277 12.0576 7.22949 11.9697 7.40527C11.8818 7.58105 11.8184 7.78613 11.7793 8.02051C11.7402 8.24512 11.7158 8.48438 11.7061 8.73828H12.9805V9.93945H11.6768V10.6426V17H9.88965V10.6426V9.93945H8.80566V8.73828H9.91895C9.94824 8.31836 10.0068 7.91797 10.0947 7.53711C10.1826 7.14648 10.3193 6.80957 10.5049 6.52637C10.7002 6.2334 10.959 5.99902 11.2812 5.82324C11.6133 5.64746 12.0283 5.55957 12.5264 5.55957C12.6729 5.55957 12.8291 5.57422 12.9951 5.60352C13.1611 5.62305 13.3223 5.65234 13.4785 5.69141C13.6445 5.7207 13.7959 5.75977 13.9326 5.80859C14.0693 5.85742 14.1768 5.91113 14.2549 5.96973L13.6836 7.02441C13.5469 6.94629 13.3809 6.89746 13.1855 6.87793C13 6.8584 12.8682 6.84863 12.79 6.84863Z" fill="#F6ECD1"/>
</svg>
