<svg width="57" height="57" viewBox="0 0 57 57" fill="none" xmlns="http://www.w3.org/2000/svg">
<circle cx="28.5" cy="28.5" r="27.5" stroke="#F6ECD1" stroke-width="2"/>
<path fill-rule="evenodd" clip-rule="evenodd" d="M45.2043 12.3105L44.316 12.1692L44.0829 11.2997L45.423 10.9397L45.2052 12.3105H45.2043ZM33.3058 24.758L32.5398 25.2297L32.538 25.2279L32.5353 25.2234L32.5263 25.209L32.4957 25.1577C32.4705 25.1145 32.4327 25.0515 32.3877 24.9714C32.2616 24.751 32.1401 24.528 32.0232 24.3026C31.6533 23.5941 31.3304 22.862 31.0566 22.111C30.7523 21.2614 30.4913 20.2884 30.4508 19.347C30.4112 18.4091 30.5858 17.3912 31.2843 16.5929C31.9116 15.8764 33.0943 15.2167 34.3372 14.6461C35.6252 14.0529 37.1408 13.4841 38.5764 12.9918C40.3546 12.3845 42.1507 11.831 43.9623 11.3321L44.0523 11.3069L44.0838 11.2979L44.3178 12.1683L45.2061 12.3096L45.2007 12.3429L45.1854 12.4383C45.0956 12.9904 45.0014 13.5419 44.9028 14.0925C44.663 15.4468 44.4014 16.797 44.118 18.1427C43.7976 19.6557 43.4249 21.2416 43.0298 22.5691C42.8327 23.2325 42.6257 23.8454 42.4115 24.3602C42.2063 24.8553 41.9633 25.3359 41.6681 25.6743C41.0362 26.3961 40.0525 26.622 39.1929 26.6796C38.2965 26.7399 37.3028 26.631 36.4091 26.4726C35.612 26.329 34.8226 26.1458 34.0438 25.9236C33.7251 25.8339 33.4082 25.7378 33.0934 25.6356L33.0366 25.6158L33.0213 25.6104L33.0168 25.6095H33.015L33.3067 24.7571L33.3058 24.758ZM33.3058 24.758L32.5398 25.2297L32.709 25.5042L33.015 25.6095L33.3058 24.758ZM33.9106 24.0083C34.8321 24.2959 35.7701 24.5274 36.7196 24.7013C37.5513 24.8481 38.3829 24.9309 39.0723 24.8841C39.8005 24.8355 40.1659 24.6572 40.3126 24.4898C40.4062 24.3818 40.5592 24.1262 40.7482 23.6708C40.9291 23.2361 41.1163 22.688 41.3035 22.057C41.6789 20.797 42.0398 19.2642 42.3566 17.771C42.6606 16.3264 42.9391 14.8765 43.1918 13.422L42.9137 13.503C41.9156 13.7973 40.5673 14.2123 39.1605 14.6947C37.7511 15.178 36.2993 15.7243 35.0887 16.2814C33.8323 16.8593 32.9844 17.384 32.6388 17.7791C32.3625 18.0941 32.2203 18.5793 32.25 19.2696C32.2788 19.9563 32.4759 20.7367 32.7513 21.5026C33.0231 22.2604 33.3544 22.9607 33.6208 23.4737C33.7333 23.6897 33.8332 23.8715 33.9106 24.0083V24.0083ZM16.6937 14.5759L16.4606 15.4453L15.5713 15.5866L15.3535 14.2168L16.6946 14.5768L16.6937 14.5759ZM25.4079 25.6761L26.1738 26.1468L26.1756 26.145L26.1774 26.1414L26.1846 26.1297L26.2107 26.0865C26.3464 25.8553 26.4761 25.6206 26.5995 25.3827C26.8372 24.9255 27.1405 24.2873 27.3943 23.5817C27.6445 22.8833 27.8623 22.0741 27.8956 21.2857C27.9298 20.4999 27.784 19.6233 27.1774 18.9303C26.6409 18.3164 25.6482 17.7692 24.6402 17.3048C23.5862 16.8197 22.3486 16.3553 21.1795 15.9547C19.7314 15.4602 18.2688 15.0093 16.7936 14.6029L16.7198 14.5831L16.6937 14.5759L16.4606 15.4453L15.5713 15.5866L15.5758 15.6136L15.5884 15.6919L15.637 15.9853C15.8799 17.4412 16.1533 18.8918 16.457 20.3361C16.718 21.5674 17.0222 22.8608 17.3444 23.9453C17.5064 24.4871 17.6756 24.9921 17.8529 25.4178C18.0212 25.8228 18.2274 26.2359 18.4866 26.5311C19.0446 27.1702 19.9023 27.3592 20.6125 27.406C21.3613 27.4564 22.183 27.3655 22.9166 27.2368C23.8376 27.0714 24.7459 26.8416 25.6347 26.5491L25.6806 26.5338L25.6941 26.5293L25.6986 26.5275L25.4079 25.6761V25.6761ZM25.4079 25.6761L26.1738 26.1468L26.0046 26.4222L25.6986 26.5275L25.4079 25.6761ZM24.8022 24.9255C25.1538 24.3005 25.454 23.6479 25.6995 22.9742C25.92 22.3594 26.0748 21.7429 26.0973 21.2083C26.1207 20.6701 26.0073 20.3262 25.8228 20.1147C25.5681 19.8249 24.9111 19.4109 23.8877 18.9402C22.9121 18.4911 21.7384 18.0491 20.5954 17.6576C19.5996 17.3177 18.5967 16.999 17.5874 16.7018L17.591 16.7243C17.744 17.5883 17.9618 18.7548 18.2184 19.9635C18.4749 21.175 18.7674 22.4143 19.0698 23.4323C19.2219 23.9417 19.3713 24.3818 19.5153 24.7274C19.6683 25.0938 19.7835 25.2801 19.8411 25.3467C19.9149 25.4304 20.1534 25.5717 20.7331 25.6104C21.274 25.6464 21.9346 25.5816 22.6043 25.4637C23.3474 25.3297 24.0814 25.1497 24.8022 24.9246V24.9255ZM22.8311 33.5065C22.6025 33.5191 22.4909 33.5515 22.4621 33.5641C22.0543 33.7486 20.8159 34.1806 19.7466 34.5451C19.1976 34.7332 18.6711 34.9096 18.2823 35.0401L18.2571 35.0491V39.9121C18.4155 39.9049 18.5856 39.8986 18.7593 39.8923C19.5045 39.8653 20.3911 39.8383 20.7754 39.8545C22.3882 39.9184 23.5997 40.3 24.7212 40.6537L24.7455 40.6618C25.7967 40.993 26.7706 41.2972 28.0459 41.3935C28.4059 41.4205 28.756 41.4556 29.0828 41.488H29.0873C30.3419 41.614 31.1682 41.677 31.8081 41.4448C32.3058 41.2639 34.1284 40.4188 35.9663 39.4944C36.8753 39.0372 37.7664 38.5719 38.4747 38.1732C38.8302 37.9734 39.1317 37.7952 39.363 37.6458C39.4783 37.5711 39.5701 37.5081 39.6403 37.4567C39.6678 37.4365 39.6949 37.4155 39.7213 37.3937L39.7465 37.3721C39.8365 37.2812 39.9319 36.9644 39.7771 36.6665C39.7042 36.5272 39.5838 36.4186 39.4378 36.3605C39.2577 36.2822 38.9517 36.2219 38.4657 36.302C37.3695 36.482 36.0599 37.0094 34.7521 37.5414L34.7341 37.5495C34.0915 37.8105 33.4471 38.0724 32.8755 38.2632C32.3265 38.4459 31.7172 38.6097 31.1862 38.5782C30.4571 38.5332 29.1782 38.3442 28.1233 38.1732C27.5171 38.0752 26.9117 37.9726 26.307 37.8654L26.19 37.8447L26.1486 37.8366L26.3196 36.0509L30.4328 36.1004H30.4418C30.4899 36.0952 30.5374 36.0862 30.584 36.0734C30.7262 36.0374 30.9702 35.9483 31.2771 35.7314C31.3716 35.6639 31.4958 35.5397 31.6119 35.3732C31.6596 35.3038 31.7001 35.2354 31.7343 35.1697C31.2328 35.1378 30.7345 35.0674 30.2438 34.9591C29.9766 34.901 29.7115 34.8334 29.4491 34.7566L29.4185 34.7476L24.3809 33.6262L24.3332 33.6181C24.0651 33.5735 23.7951 33.5405 23.5241 33.5191C23.2936 33.4999 23.0621 33.4957 22.8311 33.5065V33.5065ZM24.5573 32.7441L24.7203 31.8594L24.7365 31.8621L29.8829 33.0069L29.9207 33.0186L29.9279 33.0213L29.9621 33.0312L30.1043 33.0717C30.2294 33.1059 30.4094 33.1527 30.6236 33.1995C31.0611 33.2941 31.6083 33.3814 32.1141 33.3814C32.6208 33.3814 33.1717 33.5704 33.4687 34.1086C33.7225 34.5694 33.6595 35.068 33.5704 35.3975C33.4877 35.6887 33.3644 35.9668 33.2041 36.2237C33.4777 36.1157 33.7684 35.9987 34.0735 35.8745L34.1293 35.8511C35.3696 35.347 36.8564 34.7422 38.1732 34.5253C39.7033 34.2751 40.8508 34.8241 41.3755 35.8394C41.8382 36.7349 41.7356 37.9158 41.029 38.634C40.8517 38.814 40.588 38.9967 40.336 39.1596C40.0624 39.3351 39.7276 39.5331 39.3567 39.742C38.6142 40.1596 37.6953 40.6393 36.7736 41.1028C34.9537 42.0182 33.0366 42.9137 32.421 43.1369C31.3536 43.5239 30.1187 43.4006 29.0216 43.2908L28.9073 43.2791C28.5752 43.2451 28.2428 43.2151 27.91 43.1891C26.4159 43.0757 25.2711 42.7148 24.2252 42.3854L24.2027 42.3782C23.0777 42.0236 22.0642 41.7076 20.7034 41.6527C20.4046 41.641 19.5999 41.6626 18.8241 41.6914C18.3872 41.7073 17.9504 41.725 17.5136 41.7445L17.3975 41.75L16.4561 41.7932V33.7504L17.2454 33.4885C17.8859 33.2756 18.5255 33.0602 19.1643 32.8422C20.2839 32.4597 21.4126 32.0628 21.7204 31.9242C22.0507 31.7748 22.426 31.7262 22.7267 31.7082C23.0462 31.6902 23.3747 31.7037 23.6618 31.7253C24.0074 31.7523 24.3516 31.7953 24.6933 31.854L24.7122 31.8576H24.7176L24.7194 31.8585H24.7212L24.5573 32.7441Z" fill="#F6ECD1"/>
<path fill-rule="evenodd" clip-rule="evenodd" d="M39.0926 17.5153C39.1824 17.5921 39.2563 17.6859 39.3099 17.7913C39.3635 17.8966 39.3958 18.0115 39.405 18.1293C39.4142 18.2472 39.4 18.3657 39.3634 18.4781C39.3268 18.5905 39.2684 18.6945 39.1916 18.7844C36.5086 21.9147 33.1685 26.5022 31.6943 30.2311C31.6508 30.341 31.586 30.4413 31.5038 30.5262C31.4215 30.6111 31.3234 30.679 31.2149 30.726C31.1064 30.773 30.9897 30.7981 30.8715 30.8C30.7533 30.8019 30.6359 30.7804 30.526 30.7369C30.4161 30.6934 30.3158 30.6287 30.2309 30.5465C30.146 30.4642 30.0781 30.3661 30.0311 30.2576C29.9842 30.1491 29.959 30.0324 29.9571 29.9142C29.9553 29.796 29.9767 29.6786 30.0202 29.5687C31.607 25.5554 35.1063 20.7843 37.8236 17.6134C37.979 17.4323 38.2 17.3202 38.4379 17.302C38.6759 17.2838 38.9114 17.3608 39.0926 17.5162V17.5153Z" fill="#F6ECD1"/>
<path fill-rule="evenodd" clip-rule="evenodd" d="M21.2994 20.4028C21.2066 20.4761 21.1292 20.5669 21.0715 20.6701C21.0138 20.7733 20.977 20.8869 20.9632 21.0043C20.9494 21.1217 20.9589 21.2407 20.9911 21.3545C21.0233 21.4683 21.0776 21.5746 21.1509 21.6674C23.1688 24.228 25.3721 27.505 26.418 30.2232C26.5078 30.4401 26.6788 30.6134 26.8945 30.706C27.1103 30.7986 27.3537 30.8033 27.5728 30.719C27.792 30.6347 27.9695 30.468 28.0675 30.2547C28.1655 30.0413 28.1763 29.7981 28.0975 29.5769C26.9535 26.6032 24.6161 23.1551 22.564 20.5531C22.4163 20.3657 22.2003 20.2445 21.9633 20.2163C21.7263 20.1881 21.4879 20.2552 21.3003 20.4028H21.2994Z" fill="#F6ECD1"/>
<path d="M12.8555 31.7001H18.2557V43.4007H12.8555V31.7001Z" fill="#F6ECD1"/>
</svg>
