<svg width="43" height="43" viewBox="0 0 43 43" fill="none" xmlns="http://www.w3.org/2000/svg">
<path d="M21.5 1.79175C25.7766 1.79175 29.8781 3.49063 32.9021 6.51465C35.9261 9.53868 37.625 13.6401 37.625 17.9167C37.625 24.5925 32.5367 31.5872 22.575 39.0584C22.2649 39.291 21.8877 39.4167 21.5 39.4167C21.1123 39.4167 20.7351 39.291 20.425 39.0584C10.4633 31.5872 5.375 24.5925 5.375 17.9167C5.375 13.6401 7.07388 9.53868 10.0979 6.51465C13.1219 3.49063 17.2234 1.79175 21.5 1.79175ZM21.5 5.37508C18.1737 5.37508 14.9837 6.69643 12.6317 9.04845C10.2797 11.4005 8.95833 14.5905 8.95833 17.9167C8.95833 22.7722 12.7531 28.3729 20.511 34.59L21.5 35.3712L22.489 34.59C30.2469 28.3729 34.0417 22.7722 34.0417 17.9167C34.0417 14.5905 32.7203 11.4005 30.3683 9.04845C28.0163 6.69643 24.8263 5.37508 21.5 5.37508ZM21.5 14.3334C22.4504 14.3334 23.3618 14.7109 24.0338 15.3829C24.7058 16.055 25.0833 16.9664 25.0833 17.9167C25.0833 18.8671 24.7058 19.7785 24.0338 20.4505C23.3618 21.1226 22.4504 21.5001 21.5 21.5001C20.5496 21.5001 19.6382 21.1226 18.9662 20.4505C18.2942 19.7785 17.9167 18.8671 17.9167 17.9167C17.9167 16.9664 18.2942 16.055 18.9662 15.3829C19.6382 14.7109 20.5496 14.3334 21.5 14.3334Z" fill="#F6ECD1"/>
</svg>
