<svg width="51" height="48" viewBox="0 0 51 48" fill="none" xmlns="http://www.w3.org/2000/svg">
<path d="M17.796 25.2083C17.8721 25.0232 17.9278 24.8913 17.981 24.7578C19.105 21.9633 20.2199 19.1654 21.3603 16.3807C21.5945 15.8281 21.8763 15.297 22.2026 14.7934C22.7044 13.9965 23.8333 13.6689 24.7051 14.0301C24.8918 14.1006 25.0546 14.2227 25.1746 14.3822C25.2946 14.5417 25.3668 14.732 25.383 14.931C25.64 16.9467 25.9061 18.9623 26.1639 20.978C26.4824 23.4678 26.7943 25.9585 27.1152 28.4476C27.215 29.224 26.9121 29.6933 26.2245 29.7883C25.3641 29.9063 24.751 29.514 24.6503 28.7564C24.5218 27.7686 24.4235 26.7767 24.304 25.7882C23.9957 23.2426 23.6843 20.697 23.37 18.1515C23.3577 18.0499 23.32 17.9508 23.2644 17.7288C23.0057 18.2784 22.7609 18.7158 22.5882 19.1802C21.5911 21.8633 20.6112 24.5522 19.6272 27.2403C19.5102 27.5597 19.4111 27.8865 19.2998 28.2076C19.0542 28.9062 18.5025 29.3117 17.7944 29.3182C17.0862 29.3248 16.5271 28.9406 16.2766 28.2297C15.6406 26.4278 15.0487 24.6137 14.3832 22.8241C13.7978 21.2548 13.1339 19.7117 12.5003 18.1621C12.4512 18.0409 12.3784 17.9295 12.2547 17.7026C12.1401 18.5937 12.0362 19.362 11.9428 20.1311C11.5941 23.0026 11.2528 25.8742 10.8999 28.7449C10.805 29.5148 10.2041 29.9038 9.34455 29.7875C8.65363 29.6942 8.34092 29.2371 8.44406 28.4509C9.00073 24.1078 9.55766 19.7641 10.1149 15.42C10.1967 14.8106 10.236 14.1734 10.9728 14.0006C11.7759 13.8122 12.5585 13.8605 13.1585 14.5313C13.3603 14.7531 13.526 15.0051 13.6497 15.2783C14.5862 17.4266 15.521 19.5758 16.424 21.7388C16.8759 22.82 17.2606 23.929 17.6765 25.0248C17.7117 25.0889 17.7517 25.1502 17.796 25.2083Z" fill="#F6ECD1"/>
<path d="M38.8409 21.1803C38.9384 21.2532 39.0227 21.3212 39.1111 21.3826C40.8957 22.6153 41.6259 24.5277 41.0553 26.4762C40.7705 27.4256 40.1904 28.2593 39.3993 28.8561C38.6082 29.4528 37.6475 29.7814 36.6569 29.7942C34.3385 29.8376 32.0186 29.8138 29.6986 29.8023C28.8906 29.7982 28.424 29.279 28.4199 28.4206C28.4134 26.7555 28.4199 25.0896 28.4199 23.4245C28.4199 20.749 28.4199 18.0735 28.4199 15.3979C28.4199 14.3553 28.8775 13.8975 29.9147 13.8999C31.7566 13.904 33.5985 13.8925 35.4396 13.9237C38.0493 13.9679 39.9813 15.9713 39.942 18.5529C39.9281 19.4399 39.5949 20.1959 39.035 20.8658C38.9817 20.9281 38.9318 20.9928 38.8843 21.0591C38.8658 21.098 38.8513 21.1386 38.8409 21.1803ZM30.7857 21.8216H30.771C30.771 23.5416 30.78 25.2616 30.7636 26.9816C30.7636 27.3092 30.8618 27.4009 31.1795 27.3968C32.4483 27.3821 33.7172 27.3911 34.9861 27.3903C35.5452 27.3903 36.1051 27.4067 36.6634 27.3821C37.8357 27.3297 38.8074 26.4992 38.9449 25.4582C39.1021 24.273 38.448 23.2992 37.2209 22.9364C36.9194 22.8516 36.6081 22.807 36.295 22.8037C35.4355 22.7856 34.5759 22.7988 33.7164 22.7963C32.9313 22.7963 32.4148 22.3376 32.4066 21.6447C32.3992 20.9338 32.9166 20.476 33.7328 20.4727C34.2378 20.4727 34.7446 20.4997 35.2464 20.462C35.6404 20.4457 36.0298 20.3703 36.4015 20.2384C37.843 19.6651 38.1353 17.8419 36.9655 16.8231C36.5068 16.4249 35.9156 16.2133 35.3086 16.2301C33.944 16.2301 32.5793 16.2407 31.2155 16.2235C30.8741 16.2186 30.7751 16.3226 30.7775 16.6625C30.7939 18.3817 30.7857 20.1017 30.7857 21.8216Z" fill="#F6ECD1"/>
<path d="M25.0355 38.1909C20.3301 38.1909 15.6214 38.1196 10.9176 38.2196C8.46173 38.272 7.37051 36.6405 7.61446 34.4766C7.64721 34.1924 7.68159 33.9032 7.73971 33.6264C7.79989 33.3152 7.97887 33.0397 8.23868 32.8584C8.49849 32.677 8.81869 32.6041 9.13137 32.655C9.44273 32.7146 9.72095 32.8876 9.91223 33.1406C10.1035 33.3935 10.1942 33.7084 10.1669 34.0244C10.1375 34.3234 10.0744 34.6191 10.0572 34.918C10.0302 35.3816 10.3266 35.6969 10.7883 35.7248C10.8971 35.7313 11.006 35.7248 11.1157 35.7248H38.9455C39.855 35.7248 40.0973 35.4488 39.9729 34.5535C39.9467 34.3643 39.909 34.176 39.891 33.986C39.8734 33.6694 39.9736 33.3576 40.1722 33.1106C40.3709 32.8636 40.6539 32.699 40.9667 32.6485C41.6077 32.5666 42.2446 32.9695 42.3109 33.6215C42.3927 34.4274 42.4918 35.2702 42.3453 36.0524C42.0858 37.4448 41.0396 38.186 39.6012 38.1868C34.7474 38.1923 29.8921 38.1936 25.0355 38.1909Z" fill="#F6ECD1"/>
<path d="M25.0782 5.52441C28.5955 5.52441 32.1134 5.52441 35.6318 5.52441C37.4467 5.52441 38.515 6.32789 38.9833 8.08473C39.1199 8.62665 39.216 9.17803 39.2706 9.73427C39.2907 9.89775 39.2782 10.0636 39.234 10.2222C39.1897 10.3809 39.1145 10.5292 39.0127 10.6586C38.9109 10.7881 38.7845 10.896 38.6407 10.9764C38.497 11.0567 38.3388 11.1078 38.1753 11.1266C37.4991 11.2085 36.9252 10.7343 36.8098 10.0103C36.7542 9.65973 36.7157 9.30509 36.6264 8.96355C36.4529 8.29931 36.1074 8.03968 35.4264 8.01265C35.3044 8.01265 35.1808 8.01265 35.0588 8.01265C28.4045 8.01265 21.7502 8.01265 15.0959 8.01265C13.9138 8.01265 13.6224 8.25836 13.4317 9.44433C13.4002 9.71518 13.3532 9.984 13.2908 10.2494C13.2114 10.5272 13.0364 10.7678 12.7967 10.9288C12.5569 11.0898 12.268 11.1607 11.9811 11.1291C11.4007 11.0619 10.8735 10.5672 10.8931 9.98244C10.9308 8.84397 11.101 7.72353 11.7813 6.75707C12.3887 5.89462 13.2475 5.52851 14.2814 5.52851L25.0782 5.52441Z" fill="#F6ECD1"/>
</svg>
