<svg width="619" height="240" viewBox="0 0 619 240" fill="none" xmlns="http://www.w3.org/2000/svg">
<path d="M285.558 3.87614C293.509 3.87614 301.333 8.45001 304.789 16.0705C306.604 20.1838 308.207 24.394 309.591 28.6836C311.581 34.6529 315.53 38.4437 321.476 38.8314C325.658 39.0949 329.869 39.2577 334.072 39.2577C337.708 39.2577 341.335 39.1415 344.956 38.8779C367.934 37.2034 390.882 35.0017 413.396 29.5751C422.215 27.451 430.966 25.0322 439.755 22.7685C440.245 22.6482 440.747 22.5883 441.251 22.5902H441.64C443.944 22.7608 446.24 22.8383 448.529 22.8383C464.573 22.8383 480.259 19.0707 496.131 17.1946C504.534 16.16 512.988 15.6191 521.45 15.5744C529.936 15.5325 538.409 16.2457 546.777 17.7063C550.198 18.3573 553.497 19.5661 556.553 21.2879C544.959 25.4664 532.864 24.7066 521.024 26.5362C547.547 29.8542 574.684 29.7766 600.235 42.0408C599.113 42.9323 598.739 43.4595 598.365 43.4827C592.845 43.8704 587.288 44.7309 581.79 44.7309C580.69 44.7309 579.591 44.7309 578.499 44.6146C563.345 43.5215 548.25 41.6299 533.134 40.0795H533.059C532.737 40.0795 532.371 40.3043 531.682 41.2036C533.036 41.916 534.448 42.5023 535.901 42.9556C551.871 46.4131 567.9 49.5993 583.772 53.2972C590.915 54.9562 597.894 57.4447 604.835 59.8944C607.371 60.7859 609.585 62.6775 611.747 64.6156C607.974 66.6533 603.793 67.7446 599.54 67.8018C598.353 67.8022 597.168 67.7141 595.994 67.5382C585.156 65.887 574.303 64.1737 563.547 62.1581C556.501 60.8014 549.477 58.9176 542.431 57.2741C541.511 57.0571 540.583 56.9098 539.656 56.7237L539.207 57.7703C541.197 58.7936 543.097 60.096 545.191 60.7859C557.593 65.073 570.136 68.9491 582.433 73.5385C588.716 75.8642 594.625 79.345 600.587 82.5312C601.679 83.1126 602.203 84.8569 602.98 86.0042C601.724 86.6244 600.52 87.6322 599.24 87.8105C597.779 88.0018 596.308 88.0976 594.835 88.0974C587.161 88.0974 579.83 85.6089 572.485 83.446C563.262 80.7559 554.144 77.686 544.974 74.8331C544.079 74.6573 543.169 74.5794 542.259 74.6006C542.102 74.9649 541.945 75.3293 541.78 75.6936C543.674 77.142 545.645 78.4801 547.682 79.7016C557.772 85.0274 567.982 90.1207 578.013 95.5706C580.331 96.8342 582.239 99.0591 583.997 101.114C584.67 101.889 585.006 103.757 584.558 104.563C584.109 105.37 582.463 105.486 581.341 105.501H580.795C569.246 105.501 559.395 99.5941 549.036 95.4233C545.296 93.9194 541.556 92.4697 537.816 90.989L537.165 92.1983C540.247 94.6636 543.314 97.1443 546.403 99.6018C549.746 102.261 553.232 104.757 556.381 107.649C557.421 108.602 557.593 110.564 558.161 112.06C556.867 112.486 555.476 113.416 554.264 113.416C554.121 113.417 553.978 113.401 553.838 113.37C547.315 111.998 540.83 110.37 534.39 108.595C533.92 108.459 533.435 108.389 532.947 108.385C531.843 108.459 530.763 108.746 529.76 109.23C525.676 110.835 521.196 111.494 516.82 112.068C516.542 112.098 516.262 112.114 515.982 112.114C514.082 112.114 512.108 111.401 510.163 111.339H509.31C507.558 111.366 505.809 111.509 504.074 111.765C500.282 112.277 496.527 113.168 492.735 113.424C492.496 113.424 492.264 113.424 492.024 113.424C490.977 113.424 489.915 113.292 488.883 113.292C488.046 113.224 487.206 113.357 486.427 113.681C485.649 114.005 484.953 114.512 484.395 115.161C483.898 115.566 483.276 115.773 482.645 115.742H482.293C479.952 115.742 477.498 115.401 475.165 115.401C473.642 115.359 472.124 115.59 470.677 116.083C467.505 117.277 464.581 118.409 461.327 118.409C460.644 118.41 459.961 118.358 459.285 118.254H459.15C458.65 118.322 458.172 118.512 457.756 118.808C457.34 119.105 456.997 119.499 456.757 119.959C455.455 124.549 452.688 127.254 448.424 129.138C444.161 131.022 440.406 133.743 435.656 133.743C435.372 133.743 435.08 133.743 434.789 133.743H434.736C434.253 133.809 433.809 134.054 433.487 134.433C430.428 137.914 426.082 137.239 422.387 138.526C417.009 140.41 411.915 142.619 406.111 142.689C402.887 142.689 399.686 143.829 396.462 144.418C396.395 144.426 396.327 144.426 396.26 144.418C395.968 144.418 395.639 144.333 395.37 144.333C395.24 144.321 395.11 144.357 395.003 144.433C389.221 149.333 371.404 150.473 369.46 150.635C368.988 150.635 349.324 151.411 347.416 151.411H346.796C345.12 151.411 343.445 151.542 341.769 151.62C341.089 151.62 329.622 147.581 328.567 146.573C327.513 145.565 326.323 144.775 325.194 143.883C324.767 145.503 323.601 147.403 324.049 148.69C326.017 154.256 360.828 222.585 358.27 226.213C357.8 226.724 357.282 227.184 356.721 227.585C356.676 227.546 356.623 227.517 356.567 227.499C356.51 227.482 356.451 227.477 356.392 227.484C354.425 227.484 345.367 232.562 338.687 232.562C338.023 232.565 337.36 232.508 336.705 232.391C335.707 232.281 334.749 231.928 333.908 231.36C333.382 231.017 332.762 230.862 332.143 230.918C329.3 230.918 324.311 232.616 320.788 232.616C319.81 232.677 318.834 232.457 317.968 231.98C317.864 231.91 317.741 231.875 317.617 231.88C316.308 231.88 313.503 234.864 309.329 234.864C308.81 234.865 308.292 234.821 307.781 234.733C307.179 234.647 306.571 234.611 305.963 234.624C301.737 234.624 293.337 235.64 289.208 235.64C288.633 235.65 288.058 235.617 287.488 235.539C285.784 235.189 284.055 234.984 282.319 234.926H281.728C280.636 234.973 279.163 234.996 277.547 234.996C272.461 234.996 265.983 234.74 265.579 234.097C265.183 233.285 264.566 232.611 263.804 232.16C263.042 231.708 262.17 231.497 261.293 231.554C260.509 231.569 259.727 231.639 258.952 231.763C257.072 232.005 255.178 232.119 253.283 232.105C250.291 232.105 247.216 231.887 244.202 231.756C243.454 231.756 242.654 230.601 242.108 229.818C241.038 228.267 230.933 227.042 226.811 227.042H226.752C223.146 227.042 210.116 217.042 211.096 215.453C214.021 210.669 243.836 162.644 247.187 156.752C247.875 155.543 248.181 152.666 247.71 152.403C245.646 151.278 243.399 150.561 241.083 150.286C240.74 150.249 240.395 150.231 240.051 150.232C238.263 150.232 236.423 150.682 234.605 150.775C234.119 150.775 233.626 150.775 233.109 150.775C231.778 150.775 230.454 150.713 229.123 150.705C228.442 150.705 227.724 150.86 227.051 150.86C226.763 150.864 226.475 150.825 226.198 150.744C220.887 149.147 215.577 147.542 210.341 145.697C207.222 144.596 204.312 142.875 201.193 141.821C199.885 141.323 198.509 141.04 197.116 140.984C196.582 140.977 196.051 141.053 195.538 141.209C194.815 141.467 194.059 141.613 193.294 141.643C192.704 141.634 192.124 141.49 191.594 141.222C191.064 140.954 190.597 140.569 190.227 140.092C189.652 139.505 188.888 139.157 188.081 139.115H187.916C187.452 139.162 187.004 139.185 186.577 139.185C181.139 139.185 178.26 135.549 176.225 130.317C174.61 131.146 173.046 132.441 171.348 132.642C170.914 132.699 170.477 132.728 170.039 132.727C168.543 132.727 166.928 132.41 166.023 131.572C163.3 129.061 160.181 129.185 157.047 128.355C153.763 127.495 151.108 124.084 147.914 121.58C147.431 122.149 146.757 122.507 146.029 122.58C144.892 122.58 144.114 121.246 143.643 119.479C142.828 116.378 141.018 114.889 138.153 113.595C136.051 112.641 134.196 111.517 132.012 111.517C131.371 111.519 130.734 111.616 130.119 111.804C129.24 112.097 128.327 112.266 127.404 112.308C126.952 112.324 126.503 112.225 126.095 112.021C121.211 109.253 115.623 110.812 110.829 109.346C106.978 108.128 102.977 107.502 98.9509 107.486C96.5544 107.492 94.1626 107.704 91.8002 108.122C91.35 108.197 90.8947 108.233 90.4388 108.23C86.9906 108.23 83.2507 106.284 79.6454 105.548C78.5402 105.309 77.4157 105.18 76.287 105.16C75.6415 105.157 74.9974 105.222 74.3646 105.354C71.7018 105.951 69.211 107.37 66.5482 107.928C61.5292 108.974 56.428 109.672 51.3566 110.463C51.1812 110.494 51.0035 110.51 50.8256 110.509C50.3765 110.516 49.9316 110.418 49.5241 110.222C48.4619 109.672 46.9211 109.114 46.6593 108.215C46.4349 107.439 47.4821 105.819 48.3722 105.23C54.1391 101.416 60.0258 97.7955 65.8675 94.0899C67.3186 93.1674 68.7323 92.1828 70.161 91.2293C70.0637 90.896 69.959 90.5704 69.8543 90.237C68.6722 90.4356 67.5031 90.71 66.3537 91.0588C55.4556 95.09 44.6622 99.346 33.6668 103.137C31.4138 103.929 29.0523 104.34 26.6731 104.354C24.0094 104.432 21.3752 103.759 19.0512 102.408C21.3699 97.4389 25.783 94.9969 30.2709 92.8418C40.4061 87.8881 50.6984 83.2909 60.9383 78.5465C62.1501 77.9806 63.3543 77.3837 64.566 76.8022L64.3267 75.8952C63.264 75.9646 62.2084 76.1228 61.1702 76.3681C51.6783 79.469 42.2985 83.0118 32.7094 85.7562C27.3987 87.3066 22.0207 89.0587 16.2537 89.0587C12.9463 89.0716 9.66663 88.4323 6.58975 87.1748C8.08572 85.6244 9.12541 84.0119 10.5541 82.9963C19.8216 76.4146 30.4355 73.0114 40.9222 69.3135C44.8368 67.9804 48.6581 66.3693 52.3589 64.4915C41.2663 66.3366 30.3906 70.3988 18.6323 70.3988C15.0538 70.413 11.4853 70.0047 7.99596 69.1817C18.4677 58.3284 32.0137 56.2043 44.2209 50.8475C42.5477 51.2024 40.8534 51.4407 39.1495 51.5607H38.9625C36.2025 51.5064 33.4499 50.987 30.6823 50.8785H30.4505C28.8443 51.0235 27.2482 51.2695 25.6708 51.6149C26.4712 50.266 26.8676 49.0567 27.668 48.3357C33.9211 42.6843 41.4533 39.6143 49.3595 37.4825C57.4751 35.2575 65.6656 33.3272 73.8635 30.7689C71.2156 30.5364 68.5378 30.4433 65.9199 29.9937C64.8204 29.8077 63.8255 28.9161 62.7858 28.3425C63.5338 27.2726 64.1247 25.6602 65.157 25.2415C69.3905 23.4197 73.6541 21.2646 78.112 20.4816C86.0016 19.1443 93.986 18.4986 101.98 18.5513C109.535 18.5513 117.097 19.0319 124.674 19.6986C132.371 20.3731 140.015 21.6057 147.794 21.6057C149.881 21.6057 151.968 21.5204 154.077 21.3111C155.932 21.1251 157.817 21.032 159.65 21.032C168.349 21.032 176.951 22.9779 185.336 25.7764C204.978 32.3504 224.979 36.8468 245.72 37.5677C248.707 37.7261 251.682 38.0704 254.629 38.5988C255.03 38.6652 255.435 38.6989 255.841 38.6996C256.834 38.7576 257.816 38.4549 258.617 37.8437C259.419 37.2324 259.989 36.3508 260.231 35.3506C261.645 30.955 263.066 26.5439 264.106 22.0398C266.111 13.3805 270.965 7.70578 279.208 4.98472C281.256 4.27516 283.399 3.90113 285.558 3.87614ZM285.558 -2.44178e-05C282.997 -0.00452647 280.45 0.406139 278.011 1.21709C268.669 4.31802 262.752 11.0393 260.426 21.094C259.416 25.4586 258.002 29.8464 256.641 34.0869C256.417 34.7846 256.334 34.7846 255.796 34.7846C255.58 34.7837 255.365 34.7656 255.153 34.7304C252.06 34.1766 248.937 33.8168 245.803 33.6528C227.268 33.0094 207.85 29.2185 186.443 22.0243C176.517 18.6986 167.743 17.0861 159.605 17.0861C157.6 17.0861 155.611 17.1869 153.666 17.3807C151.721 17.5745 149.844 17.6598 147.749 17.6598C142.55 17.5639 137.359 17.1809 132.199 16.5124C129.835 16.2488 127.382 15.9775 124.951 15.7372C115.975 14.962 108.667 14.5821 101.935 14.5821C93.7304 14.5252 85.5356 15.1891 77.4389 16.5667C73.3474 17.2877 69.5775 18.9622 65.9349 20.5746C65.1869 20.9157 64.4389 21.2491 63.6909 21.5669C62.1769 22.3326 60.9567 23.6055 60.2277 25.1795C60.0861 25.446 59.9313 25.7048 59.764 25.9548L57.1385 29.5906L59.2778 30.7612L56.6224 31.4589C53.9147 32.1644 51.1173 32.9008 48.3946 33.6528C38.2519 36.4359 31.1087 40.0485 25.2071 45.3588C24.3136 46.2451 23.588 47.2968 23.0678 48.4597C22.8809 48.8396 22.6939 49.235 22.4844 49.5528L18.2508 56.6772L19.1634 56.5377C14.0299 58.9767 9.3489 62.33 5.33313 66.4451L0.568468 71.3989L7.14325 72.9493C10.6266 73.7748 14.1843 74.2165 17.7572 74.2672C14.5221 75.8648 11.409 77.7152 8.44475 79.8024C7.20893 80.7434 6.09524 81.8456 5.13118 83.0816C4.73474 83.5468 4.33083 84.0274 3.90448 84.4848L0 88.671L5.23589 90.7874C8.74577 92.2235 12.4878 92.9523 16.2612 92.9348C18.6903 92.9123 21.112 92.6528 23.4942 92.1596C20.1113 94.1673 17.3763 97.1664 15.6329 100.78L14.1369 103.935L17.0167 105.765C19.9312 107.489 23.2431 108.36 26.5983 108.284C29.3816 108.275 32.145 107.798 34.7813 106.873C38.1472 105.703 41.5131 104.486 44.8866 103.253C43.4953 104.804 42.3509 107.129 43.0016 109.393C43.7047 111.788 45.8365 112.812 47.2427 113.486L47.7738 113.75C48.7072 114.214 49.7307 114.45 50.7657 114.44C51.1313 114.439 51.4962 114.41 51.8578 114.354L55.1115 113.851C59.0833 113.246 63.1897 112.626 67.2289 111.781C68.7843 111.423 70.3081 110.93 71.7841 110.308C72.8601 109.86 73.9648 109.489 75.0902 109.199C75.4646 109.123 75.8456 109.087 76.2271 109.091C77.1149 109.111 77.9989 109.217 78.8675 109.409C80.1608 109.703 81.4369 110.073 82.6897 110.517C85.1506 111.292 87.6937 112.161 90.379 112.161C91.0404 112.162 91.7008 112.107 92.3537 111.998C94.5133 111.615 96.7001 111.421 98.8911 111.416C102.559 111.438 106.205 112.01 109.714 113.114C112.048 113.738 114.448 114.056 116.858 114.06C119.573 114.176 122.138 114.285 124.248 115.479C125.2 116.004 126.266 116.271 127.344 116.254C128.614 116.216 129.872 115.997 131.084 115.603C131.363 115.513 131.653 115.466 131.945 115.463C133.151 115.617 134.315 116.017 135.37 116.641L136.589 117.215C139.013 118.308 139.581 119.13 139.963 120.564C141.384 125.991 144.63 126.557 145.947 126.557C146.452 126.56 146.956 126.489 147.443 126.347L148.191 127.068C150.502 129.192 152.888 131.386 156.03 132.216C156.98 132.464 157.862 132.627 158.722 132.79C160.966 133.2 162.275 133.487 163.45 134.573C165.364 136.332 168.042 136.704 169.95 136.704C170.545 136.705 171.139 136.666 171.73 136.588C172.681 136.452 173.606 136.167 174.475 135.743C176.45 139.146 180.032 143.139 186.488 143.139C186.877 143.139 187.273 143.123 187.677 143.092C188.39 143.869 189.247 144.487 190.197 144.911C191.147 145.335 192.17 145.555 193.204 145.558C194.354 145.533 195.494 145.329 196.585 144.953C196.739 144.909 196.898 144.891 197.057 144.899C198.045 144.951 199.02 145.166 199.944 145.534C201.394 146.067 202.817 146.675 204.207 147.356C205.763 148.085 207.364 148.829 209.077 149.434C214.17 151.232 219.137 152.744 225.099 154.543C225.715 154.72 226.351 154.809 226.991 154.806C227.464 154.8 227.936 154.766 228.405 154.705C228.651 154.705 228.913 154.651 229.063 154.651C229.691 154.651 230.319 154.651 230.955 154.651C231.591 154.651 232.346 154.69 233.05 154.69C233.753 154.69 234.187 154.69 234.703 154.651C235.668 154.605 236.58 154.48 237.455 154.356C238.287 154.223 239.127 154.143 239.968 154.116C240.2 154.116 240.402 154.116 240.589 154.116C241.688 154.252 242.769 154.512 243.813 154.891C241.061 159.69 223.333 188.343 213.767 203.793L207.857 213.359C207.439 214.065 207.217 214.876 207.217 215.704C207.217 216.533 207.439 217.344 207.857 218.05C209.309 220.778 214.118 224.414 216.123 225.848C220.813 229.213 224.351 230.911 226.677 230.911H226.737C230.402 230.911 237.388 231.895 239.407 232.655C240.313 233.88 241.771 235.531 243.978 235.624L246.678 235.756C248.802 235.864 251.001 235.973 253.208 235.973C255.268 235.988 257.327 235.861 259.371 235.593C259.983 235.5 260.6 235.443 261.219 235.423C261.854 235.423 261.907 235.423 262.318 236.12C263.47 238.066 265.482 238.392 269.484 238.647C271.676 238.787 274.578 238.865 277.45 238.865C279.118 238.865 280.659 238.865 281.796 238.787H282.222C283.667 238.838 285.105 239.012 286.523 239.306L286.777 239.345C287.55 239.464 288.33 239.516 289.111 239.5C291.31 239.5 294.407 239.252 297.69 238.989C300.742 238.741 303.891 238.485 305.866 238.485C306.266 238.473 306.666 238.491 307.063 238.539C307.78 238.663 308.505 238.725 309.232 238.725C312.116 238.62 314.922 237.724 317.362 236.128L317.534 236.027C318.558 236.344 319.623 236.496 320.691 236.477C323.047 236.379 325.389 236.047 327.685 235.485C329.109 235.136 330.557 234.9 332.015 234.779C333.217 235.511 334.547 235.991 335.927 236.19C336.807 236.349 337.698 236.427 338.59 236.423C343.617 236.423 349.242 234.174 353.348 232.546C353.969 232.298 354.672 232.011 355.27 231.771L356.303 232.926L359.04 230.531L359.504 230.151C360.139 229.69 360.704 229.134 361.179 228.5C362.623 226.461 362.331 223.996 359.893 217.491C358.464 213.701 356.317 208.646 353.333 202.033C347.962 190.133 341.141 176.024 335.658 164.69C333.175 159.558 330.781 154.612 329.218 151.279C330.332 151.759 331.851 152.356 333.953 153.132C340.385 155.504 341.193 155.504 341.672 155.504H341.822L343.318 155.426C344.492 155.357 345.606 155.295 346.698 155.295H347.319C349.159 155.295 368.943 154.566 369.654 154.519H369.983C378.862 153.845 390.321 152.194 396.163 148.317C396.448 148.316 396.734 148.29 397.015 148.24C398.152 148.031 399.259 147.767 400.329 147.519C402.202 146.999 404.122 146.68 406.058 146.565C411.586 146.503 416.381 144.767 421.018 143.085C421.833 142.79 422.656 142.488 423.486 142.201C424.505 141.886 425.545 141.656 426.598 141.511C429.358 141.053 432.747 140.48 435.574 137.635C439.987 137.635 443.637 135.774 446.854 134.138C447.871 133.627 448.821 133.146 449.786 132.72C454.947 130.433 458.171 127.084 459.854 122.254C460.31 122.293 460.766 122.308 461.215 122.308C464.955 122.308 468.223 121.084 471.38 119.897L471.844 119.719C472.89 119.376 473.986 119.224 475.083 119.269C476.122 119.269 477.222 119.347 478.381 119.432C479.54 119.518 480.909 119.611 482.211 119.611H482.615C483.448 119.63 484.276 119.472 485.048 119.147C485.82 118.821 486.519 118.335 487.103 117.719C487.402 117.378 487.641 117.161 488.771 117.161C489.175 117.161 489.631 117.161 490.109 117.215C490.588 117.269 491.276 117.293 491.912 117.293C492.249 117.293 492.563 117.293 492.862 117.293C495.42 117.114 497.903 116.688 500.342 116.277C501.771 116.029 503.117 115.796 504.478 115.61C506.067 115.376 507.668 115.244 509.273 115.215C509.512 115.215 509.752 115.215 510.021 115.215C510.776 115.269 511.526 115.38 512.265 115.548C513.495 115.822 514.747 115.975 516.005 116.006C516.44 116.008 516.874 115.982 517.306 115.928C521.854 115.339 526.664 114.61 531.107 112.874L531.226 112.827C531.78 112.56 532.366 112.375 532.969 112.277C533.133 112.285 533.296 112.311 533.455 112.354C540.673 114.347 547.106 115.928 553.105 117.184C553.491 117.268 553.885 117.31 554.279 117.308C555.673 117.236 557.036 116.861 558.281 116.207C558.67 116.029 559.029 115.866 559.298 115.773L563.128 114.533L561.632 110.657C561.5 110.286 561.387 109.908 561.295 109.525C560.906 108.106 560.383 106.168 558.849 104.757C558.199 104.16 557.533 103.579 556.86 103.013C564.287 106.277 572.014 109.354 580.795 109.354H581.401C584.655 109.3 586.749 108.362 587.796 106.47C589.18 103.982 588.38 100.331 586.772 98.4855L586.637 98.3304C584.722 96.1443 582.56 93.679 579.711 92.1286C576.173 90.1982 572.582 88.3067 569.007 86.4461L571.438 87.1593L574.033 87.9346C580.661 89.9037 587.497 91.9425 594.797 91.9425C596.431 91.9444 598.062 91.8357 599.682 91.6169C601.102 91.3677 602.457 90.816 603.661 89.9967C604.005 89.7951 604.319 89.6013 604.589 89.4695L608.53 87.5237L606.062 83.7871C605.927 83.5855 605.755 83.2599 605.576 82.9111C604.904 81.2942 603.758 79.9379 602.3 79.0349L599.024 77.2596C594.081 74.4286 588.958 71.9498 583.69 69.8406L581.887 69.174C586.652 69.9492 591.23 70.6469 595.478 71.2903C596.833 71.4974 598.2 71.601 599.57 71.6004C604.404 71.5575 609.16 70.3246 613.445 68.0033L618.479 65.4063L614.223 61.5999C611.717 59.3595 609.211 57.2586 606.077 56.1733L605.628 56.0105C598.829 53.615 591.805 51.1265 584.625 49.4598L580.646 48.545H581.782C585.522 48.545 589.262 48.1729 592.838 47.7698C594.738 47.5837 596.705 47.3822 598.612 47.2504C599.78 47.1211 600.867 46.5726 601.686 45.6999C601.911 45.4906 602.165 45.2658 602.502 45.0022L607.423 41.126L601.799 38.4282C586.233 30.9627 570.077 27.9471 554.092 26.0245C555.319 25.6757 556.553 25.2493 557.772 24.8462L565.895 21.9158L558.281 17.8303C554.879 15.9189 551.205 14.5791 547.398 13.8611C538.815 12.3567 530.124 11.6227 521.42 11.6672C512.818 11.7103 504.224 12.259 495.682 13.3107C490.304 13.9464 484.889 14.8069 479.66 15.6364C469.45 17.2566 458.896 18.9311 448.499 18.9311C446.255 18.9311 444.011 18.8536 441.879 18.6986C441.663 18.6986 441.438 18.6986 441.221 18.6986C440.422 18.6995 439.627 18.7984 438.85 18.9932C435.798 19.7684 432.709 20.5979 429.717 21.3886C424.092 22.8693 418.281 24.4043 412.514 25.7842C391.48 30.862 370.17 33.1334 344.649 34.994C341.275 35.242 337.7 35.3661 334.035 35.3661C330.145 35.3661 325.987 35.2188 321.671 34.9474C317.497 34.6761 314.692 32.2109 313.084 27.4044C311.664 22.9933 310.024 18.6617 308.17 14.427C304.205 5.65917 295.319 -2.44178e-05 285.558 -2.44178e-05Z" fill="#F6EDCF"/>
</svg>
