<?xml version="1.0" encoding="utf-8"?>
<!-- Generator: Adobe Illustrator 24.0.0, SVG Export Plug-In . SVG Version: 6.00 Build 0)  -->
<svg version="1.1" id="Layer_1" xmlns="http://www.w3.org/2000/svg" xmlns:xlink="http://www.w3.org/1999/xlink" x="0px" y="0px"
	 viewBox="0 0 526.9 132.6" style="enable-background:new 0 0 526.9 132.6;" xml:space="preserve">
<style type="text/css">
	.st0{fill:#F5EBD1;}
</style>
<g>
	<g>
		<rect y="6.3" class="st0" width="23.4" height="124.4"/>
		<polygon class="st0" points="28.3,63.6 28.3,17.3 63.7,96.8 61.8,100.4 45.3,100.4 		"/>
		<polygon class="st0" points="56.5,67.5 78.7,17.1 78.7,63.6 66.6,90 		"/>
		<rect x="83.7" y="6.3" class="st0" width="23.4" height="124.4"/>
		<rect x="130.8" class="st0" width="24.3" height="26.5"/>
		<rect x="130.8" y="43.4" class="st0" width="24.3" height="87.2"/>
		<path class="st0" d="M178.3,130.6V0h24.3v130.6H178.3z"/>
		<polygon class="st0" points="280.2,130.6 259.2,130.6 216.7,6.3 243.2,6.3 		"/>
		<polygon class="st0" points="285.7,130.6 275.4,95.7 301.7,6.3 328.2,6.3 		"/>
		<path class="st0" d="M360.7,50.8v29.4h-24.3V43c0-29.1,22.6-38.8,46.5-38.8c23.9,0,46.5,9.8,46.5,38.8v8.1h-24.3v-0.4
			c0-18.8-7.7-24.3-22.3-24.3C368.5,26.5,360.7,32,360.7,50.8z"/>
		<path class="st0" d="M405.3,85.7V56.7h24.3v37.2c0,29.1-22.4,38.8-46.5,38.8c-24.1,0-46.5-9.7-46.5-38.8v-8.1h24.3
			c0,18.8,7.7,24.5,22.3,24.5C397.5,110.2,405.3,104.7,405.3,85.7z"/>
		<polygon class="st0" points="453.1,130.6 443.5,130.6 443.5,108.5 516.5,6.3 526.7,6.3 526.7,28 		"/>
		<polygon class="st0" points="447.4,6.3 510.5,6.3 495,28 447.4,28 		"/>
		<polygon class="st0" points="459.2,130.6 474.8,108.7 526.9,108.7 526.9,130.6 		"/>
	</g>
</g>
</svg>
