<svg width="86" height="67" viewBox="0 0 86 67" fill="none" xmlns="http://www.w3.org/2000/svg">
<path d="M79.8571 59.3864V22.8409C78.8333 23.983 77.7295 25.0298 76.5458 25.9815C67.9714 32.5166 61.1566 37.8778 56.1016 42.0653C54.4699 43.4295 53.1421 44.4922 52.1183 45.2536C51.0945 46.0149 49.7108 46.7842 47.9671 47.5614C46.2234 48.3387 44.5837 48.7273 43.048 48.7273H42.952C41.4163 48.7273 39.7766 48.3387 38.0329 47.5614C36.2892 46.7842 34.9055 46.0149 33.8817 45.2536C32.8579 44.4922 31.5301 43.4295 29.8984 42.0653C24.8434 37.8778 18.0286 32.5166 9.45424 25.9815C8.27046 25.0298 7.16667 23.983 6.14286 22.8409V59.3864C6.14286 59.7988 6.29483 60.1557 6.59877 60.457C6.90272 60.7584 7.26265 60.9091 7.67857 60.9091H78.3214C78.7374 60.9091 79.0973 60.7584 79.4012 60.457C79.7052 60.1557 79.8571 59.7988 79.8571 59.3864ZM79.8571 9.37429V8.20845L79.8331 7.58984L79.6892 6.99503L79.4252 6.56676L78.9933 6.20987L78.3214 6.09091H7.67857C7.26265 6.09091 6.90272 6.2416 6.59877 6.54297C6.29483 6.84434 6.14286 7.20123 6.14286 7.61364C6.14286 12.9432 8.49442 17.4479 13.1975 21.1278C19.3724 25.9498 25.7872 30.978 32.442 36.2124C32.6339 36.371 33.1938 36.8389 34.1217 37.6161C35.0495 38.3933 35.7853 38.9882 36.3292 39.4006C36.8731 39.813 37.585 40.3126 38.4648 40.8995C39.3447 41.4864 40.1525 41.9226 40.8884 42.2081C41.6243 42.4936 42.3121 42.6364 42.952 42.6364H43.048C43.6879 42.6364 44.3757 42.4936 45.1116 42.2081C45.8475 41.9226 46.6553 41.4864 47.5352 40.8995C48.415 40.3126 49.1269 39.813 49.6708 39.4006C50.2147 38.9882 50.9505 38.3933 51.8783 37.6161C52.8062 36.8389 53.3661 36.371 53.558 36.2124C60.2128 30.978 66.6276 25.9498 72.8025 21.1278C74.5301 19.7637 76.1378 17.9317 77.6256 15.6317C79.1133 13.3318 79.8571 11.246 79.8571 9.37429ZM86 7.61364V59.3864C86 61.4801 85.2481 63.2725 83.7444 64.7635C82.2407 66.2545 80.433 67 78.3214 67H7.67857C5.56696 67 3.7593 66.2545 2.25558 64.7635C0.75186 63.2725 0 61.4801 0 59.3864V7.61364C0 5.51989 0.75186 3.72751 2.25558 2.23651C3.7593 0.745502 5.56696 0 7.67857 0H78.3214C80.433 0 82.2407 0.745502 83.7444 2.23651C85.2481 3.72751 86 5.51989 86 7.61364Z" fill="#F6ECD1"/>
</svg>
