<svg width="57" height="57" viewBox="0 0 57 57" fill="none" xmlns="http://www.w3.org/2000/svg">
<circle cx="28.5" cy="28.5" r="27.5" stroke="#F6ECD1" stroke-width="2"/>
<path fill-rule="evenodd" clip-rule="evenodd" d="M35.5873 21.3601C36.5328 21.6441 37.2133 21.7395 37.2133 21.7395V19.2918H38.8392C39.9173 19.2918 40.9512 18.8619 41.7135 18.0968C42.4758 17.3318 42.9041 16.2941 42.9041 15.2121C42.9041 14.1301 42.4758 13.0924 41.7135 12.3273C40.9512 11.5623 39.9173 11.1324 38.8392 11.1324H34.1532C33.0243 11.1324 31.9415 11.5826 31.1433 12.3837C30.345 13.1849 29.8965 14.2716 29.8965 15.4047C29.8965 19.091 33.4313 20.7131 35.5873 21.3601ZM41.2781 15.2121C41.2781 15.8613 41.0212 16.4839 40.5638 16.9429C40.1064 17.402 39.486 17.6599 38.8392 17.6599H35.5873V19.6467C35.1413 19.4947 34.7059 19.3129 34.2841 19.1025C32.672 18.2914 31.5224 17.1377 31.5224 15.4047C31.5224 14.7044 31.7996 14.0328 32.293 13.5376C32.7863 13.0425 33.4555 12.7643 34.1532 12.7643H38.8392C39.486 12.7643 40.1064 13.0222 40.5638 13.4812C41.0212 13.9403 41.2781 14.5629 41.2781 15.2121Z" fill="white"/>
<path fill-rule="evenodd" clip-rule="evenodd" d="M20.8054 20.9179C19.7401 20.8809 18.7318 20.4251 17.9982 19.6489C17.2645 18.8727 16.8642 17.8382 16.8835 16.7685C16.9028 15.6987 17.3402 14.6795 18.1014 13.9304C18.8626 13.1814 19.8866 12.7626 20.9526 12.7643H23.5289C24.571 12.7643 25.5704 13.1798 26.3072 13.9193C27.0441 14.6588 27.458 15.6618 27.458 16.7077C27.458 20.0057 24.5069 21.5135 22.5802 22.1475C21.6469 22.4543 20.9542 22.5555 20.9542 22.5555V20.9236L20.8054 20.9179ZM22.5802 19.3497L20.8648 19.2877C20.2202 19.2736 19.6074 19.0037 19.1606 18.5372C18.7137 18.0707 18.4693 17.4454 18.4808 16.7984C18.4923 16.1514 18.7588 15.5353 19.222 15.0851C19.6851 14.6348 20.3071 14.3871 20.9518 14.3961H23.5281C23.8306 14.396 24.1302 14.4558 24.4097 14.5719C24.6893 14.688 24.9432 14.8582 25.1572 15.0729C25.3712 15.2875 25.5409 15.5424 25.6567 15.8229C25.7725 16.1034 25.8321 16.4041 25.8321 16.7077C25.8321 18.2702 24.8427 19.2942 23.4549 20.0204C23.1623 20.1738 22.8655 20.3043 22.5802 20.4153V19.3497Z" fill="white"/>
<path fill-rule="evenodd" clip-rule="evenodd" d="M31.5233 25.8193C31.5233 27.6225 30.0681 29.083 28.2714 29.083C26.4748 29.083 25.0195 27.6225 25.0195 25.8193C25.0195 24.0161 26.4748 22.5555 28.2714 22.5555C30.0681 22.5555 31.5233 24.0161 31.5233 25.8193ZM29.8974 25.8193C29.8974 26.2521 29.7261 26.6671 29.4211 26.9732C29.1162 27.2792 28.7027 27.4511 28.2714 27.4511C27.8402 27.4511 27.4266 27.2792 27.1217 26.9732C26.8168 26.6671 26.6455 26.2521 26.6455 25.8193C26.6455 25.3865 26.8168 24.9714 27.1217 24.6654C27.4266 24.3593 27.8402 24.1874 28.2714 24.1874C28.7027 24.1874 29.1162 24.3593 29.4211 24.6654C29.7261 24.9714 29.8974 25.3865 29.8974 25.8193Z" fill="white"/>
<path fill-rule="evenodd" clip-rule="evenodd" d="M24.205 27.4511C24.205 29.2543 22.7497 30.7148 20.9531 30.7148C19.1564 30.7148 17.7012 29.2543 17.7012 27.4511C17.7012 25.6479 19.1564 24.1874 20.9531 24.1874C22.7497 24.1874 24.205 25.6479 24.205 27.4511ZM22.579 27.4511C22.579 27.8839 22.4077 28.299 22.1028 28.605C21.7979 28.911 21.3843 29.083 20.9531 29.083C20.5218 29.083 20.1083 28.911 19.8033 28.605C19.4984 28.299 19.3271 27.8839 19.3271 27.4511C19.3271 27.0183 19.4984 26.6032 19.8033 26.2972C20.1083 25.9912 20.5218 25.8192 20.9531 25.8192C21.3843 25.8192 21.7979 25.9912 22.1028 26.2972C22.4077 26.6032 22.579 27.0183 22.579 27.4511Z" fill="white"/>
<path fill-rule="evenodd" clip-rule="evenodd" d="M13.6367 36.0551C13.6367 33.5894 18.5113 32.3467 20.9535 32.3467C21.4291 32.3467 21.9973 32.394 22.6038 32.4879C23.6932 31.6858 25.6907 30.7148 28.2703 30.7148C30.849 30.7148 32.8465 31.6858 33.9375 32.4879C34.4831 32.3996 35.0344 32.3524 35.587 32.3467C38.0292 32.3467 42.9038 33.5894 42.9038 36.0551V40.506H13.6367V36.0551ZM26.3614 35.6292C26.6443 35.8936 26.6443 36.0314 26.6443 36.0551V38.8741H15.2627V36.0551C15.2627 36.0306 15.2627 35.8936 15.5456 35.6292C15.8407 35.3526 16.3277 35.058 16.9894 34.7888C18.3162 34.2503 19.9373 33.9786 20.9535 33.9786C21.9697 33.9786 23.5908 34.2503 24.9175 34.7888C25.5793 35.058 26.0663 35.3526 26.3614 35.6292ZM31.6376 33.0451C30.5749 32.5826 29.4286 32.3449 28.2703 32.3467C26.924 32.3467 25.7793 32.6617 24.9037 33.0451C26.7045 33.6522 28.2703 34.6574 28.2703 36.0559C28.2703 34.6574 29.836 33.653 31.6376 33.0451ZM41.2778 36.0559C41.2778 36.0314 41.2778 35.8936 40.9949 35.6292C40.6998 35.3526 40.2128 35.058 39.5511 34.7888C38.2243 34.2503 36.6032 33.9786 35.587 33.9786C34.5708 33.9786 32.9497 34.2503 31.623 34.7888C30.9612 35.058 30.4742 35.3526 30.1791 35.6292C29.8962 35.8936 29.8962 36.0314 29.8962 36.0551V38.8741H41.2778V36.0551V36.0559Z" fill="white"/>
<path fill-rule="evenodd" clip-rule="evenodd" d="M35.5878 30.7148C37.3845 30.7148 38.8397 29.2543 38.8397 27.4511C38.8397 25.6479 37.3845 24.1874 35.5878 24.1874C33.7912 24.1874 32.3359 25.6479 32.3359 27.4511C32.3359 29.2543 33.7912 30.7148 35.5878 30.7148ZM35.5878 29.083C36.0191 29.083 36.4326 28.911 36.7376 28.605C37.0425 28.299 37.2138 27.8839 37.2138 27.4511C37.2138 27.0183 37.0425 26.6032 36.7376 26.2972C36.4326 25.9912 36.0191 25.8192 35.5878 25.8192C35.1566 25.8192 34.743 25.9912 34.4381 26.2972C34.1332 26.6032 33.9619 27.0183 33.9619 27.4511C33.9619 27.8839 34.1332 28.299 34.4381 28.605C34.743 28.911 35.1566 29.083 35.5878 29.083Z" fill="white"/>
</svg>
