<svg width="74" height="84" viewBox="0 0 74 84" fill="none" xmlns="http://www.w3.org/2000/svg">
<path d="M44.0735 0V22.0368C44.0735 23.9849 44.8474 25.8533 46.225 27.2309C47.6026 28.6084 49.4709 29.3824 51.4191 29.3824H73.4559V71.0074C73.4559 72.9555 72.682 74.8239 71.3044 76.2015C69.9268 77.579 68.0585 78.3529 66.1103 78.3529H42.815C46.4725 73.9239 48.6182 68.4415 48.9388 62.7064C49.2594 56.9713 47.7381 51.2839 44.5971 46.4748C41.4561 41.6656 36.8599 37.9866 31.4796 35.9749C26.0993 33.9633 20.2169 33.7244 14.6912 35.2931V7.34559C14.6912 5.39742 15.4651 3.52904 16.8426 2.15147C18.2202 0.773908 20.0886 0 22.0368 0H44.0735ZM48.9706 1.22426V22.0368C48.9706 22.6862 49.2286 23.3089 49.6877 23.7681C50.1469 24.2273 50.7697 24.4853 51.4191 24.4853H72.2316L48.9706 1.22426ZM22.0368 83.25C27.8813 83.25 33.4864 80.9283 37.6191 76.7956C41.7518 72.6629 44.0735 67.0577 44.0735 61.2132C44.0735 55.3687 41.7518 49.7636 37.6191 45.6309C33.4864 41.4982 27.8813 39.1765 22.0368 39.1765C16.1923 39.1765 10.5871 41.4982 6.45442 45.6309C2.32172 49.7636 0 55.3687 0 61.2132C0 67.0577 2.32172 72.6629 6.45442 76.7956C10.5871 80.9283 16.1923 83.25 22.0368 83.25ZM10.5091 62.9468C10.0493 62.487 9.79102 61.8634 9.79102 61.2132C9.79102 60.563 10.0493 59.9394 10.5091 59.4797C10.9689 59.0199 11.5924 58.7616 12.2426 58.7616C12.8929 58.7616 13.5164 59.0199 13.9762 59.4797L19.5882 65.0966V51.4191C19.5882 50.7697 19.8462 50.1469 20.3054 49.6877C20.7646 49.2286 21.3874 48.9706 22.0368 48.9706C22.6862 48.9706 23.3089 49.2286 23.7681 49.6877C24.2273 50.1469 24.4853 50.7697 24.4853 51.4191V65.0966L30.0973 59.4797C30.5571 59.0199 31.1807 58.7616 31.8309 58.7616C32.4811 58.7616 33.1047 59.0199 33.5644 59.4797C34.0242 59.9394 34.2825 60.563 34.2825 61.2132C34.2825 61.8634 34.0242 62.487 33.5644 62.9468L23.7703 72.7409C23.3138 73.1963 22.6962 73.4532 22.0515 73.4559H22.0221C21.3838 73.4519 20.7723 73.1989 20.3179 72.7507L20.3032 72.736L10.5091 62.9419V62.9468Z" fill="#F2E7DA"/>
</svg>
